<?xml version="1.0" encoding="utf-8"?>
<!-- Generator: Adobe Illustrator 24.0.1, SVG Export Plug-In . SVG Version: 6.00 Build 0)  -->
<svg version="1.1" id="Layer_1" xmlns="http://www.w3.org/2000/svg" xmlns:xlink="http://www.w3.org/1999/xlink" x="0px" y="0px"
	 viewBox="0 0 850.39 850.39" style="enable-background:new 0 0 850.39 850.39;" xml:space="preserve">
<style type="text/css">
	.st0{fill:#6C5748;}
	.st1{fill:#40362D;}
	.st2{fill:#EEE7BC;}
</style>
<g>
	<g>
		<g>
			<g>
				<path class="st0" d="M564.3,136.27c-33.81-26.73-25.36,0-81.71-29.15c-56.34-29.15-143.68-19.43-154.95-14.57
					c-11.26,4.85-126.77-17.01-92.97,111.74l7.56,19.54c16.08-14.53,33.18-27.68,45.99-31.69c30.98-9.72,56.33-51.01,61.97-34.01
					c5.64,17.01-30.99,46.15-16.91,63.16c14.1,17,8.45,48.58,19.72,60.73c11.26,12.15,56.36,24.29,36.63,38.87
					c-19.73,14.58-39.44,51.01-11.28,87.45c13.95,18.03,42.38,21.78,67.55,20.96c-18.98-64.86-8.27-150.71,28.25-254.17
					c0,0,5.64,82.59,78.89,94.74C553.03,269.88,598.11,163,564.3,136.27z"/>
			</g>
			<g>
				<path class="st0" d="M278.96,334.13c13.09,12.08,11.03,44.28-1.53,79.02c46.68-16.39,44.59-59.35,44.59-67.97
					C322.02,339.22,298.43,333.19,278.96,334.13z"/>
			</g>
		</g>
		<g>
			<path class="st1" d="M385.06,168.86l14.81,0.94c-1.81-7.57-6.62-13.14-13.02-13.8c-9.25-0.95-18.18,8.6-19.94,21.32
				c-1.76,12.72,4.29,23.81,13.55,24.76c7.95,0.82,15.62-6.12,18.74-16.15L385.06,168.86z"/>
		</g>
		<g>
			<path class="st1" d="M310,155.58l11.15,0.71c-1.37-5.69-4.98-9.89-9.8-10.39c-6.95-0.72-13.67,6.46-15,16.04
				c-1.32,9.58,3.24,17.92,10.19,18.63c5.99,0.61,11.76-4.61,14.12-12.15L310,155.58z"/>
		</g>
		<g>
			<path class="st1" d="M444.57,122.91c11.26,0,50.7-4.86,29.58,52.23c0,0,4.23-36.44-14.09-40.09
				C441.75,131.41,444.57,122.91,444.57,122.91z"/>
		</g>
		<g>
			<path class="st1" d="M329.05,108.34c0,0-14.09,4.86-22.53,23.07c-8.45,18.22-28.17,55.87-28.17,66.8l-9.86,6.07
				C268.48,204.29,282.56,111.98,329.05,108.34z"/>
		</g>
		<g>
			<path class="st2" d="M322.02,345.18c0.67,8.6,2.09,51.58-44.59,67.97c-10.74,29.73-23.53,64.68-25.85,99.65
				c-5.64,85.02,14.4,253.68,53.53,252.64c34.88-0.94,1.19-156.89,1.19-156.89l46.7,6.28c0,0-8.45,143.32,11.26,143.32
				c19.73,0,36.64-24.29,36.64-24.29l25.35-2.44c0,0-39.44,24.3,0,26.72c39.45,2.43,205.68,2.43,160.58-36.44
				c0,0,123.97-4.86,118.34-109.31c0,0-36.62,43.73-104.25,60.73c0,0,8.45-87.46-84.52-148.18c-35.58-23.25-58.74-55.42-70.51-95.64
				c-25.17,0.81-53.6-2.94-67.55-20.96c-28.17-36.44-8.45-72.88,11.28-87.45c19.73-14.58-25.36-26.72-36.63-38.87
				c-11.27-12.15-5.62-43.73-19.72-60.73c-14.08-17,22.55-46.15,16.91-63.16c-5.64-17.01-30.99,24.29-61.97,34.01
				c-12.81,4.01-29.9,17.16-45.99,31.69l0.08-0.17c0,0-17.63,95.61,31.81,109.38C290.44,337.58,321.28,335.75,322.02,345.18z
				 M403.71,707.14c-6.98-2.25,2.82-41.3,2.82-80.16c0,0,16.8,36.62,36.62,70.44C443.16,697.42,419.55,712.26,403.71,707.14z"/>
		</g>
		<g>
			<path class="st1" d="M281.16,265.02c0,0,29.59-12.15,32.41-27.94c2.81-15.78-57.76-8.5-57.76-8.5S248.76,251.66,281.16,265.02z"
				/>
		</g>
		<g>
			<g>
				<path class="st1" d="M281.16,300.25c-2.33,0-4.22-1.63-4.22-3.64v-41.3c0-2.01,1.89-3.65,4.22-3.65c2.34,0,4.23,1.64,4.23,3.65
					v41.3C285.39,298.62,283.5,300.25,281.16,300.25z"/>
			</g>
		</g>
		<g>
			<path class="st1" d="M491.05,713.84c-0.86,0-1.72-0.27-2.4-0.81c-23.47-18.55-28.53-55.59-19.77-79.27
				c5.33-14.4,15.05-23.06,27.35-24.39c35.74-3.82,56.08,22.09,56.93,23.2c1.09,1.4,0.64,3.29-0.98,4.23
				c-1.64,0.93-3.83,0.56-4.92-0.84c-0.19-0.24-19.1-23.94-50.14-20.52c-12.7,1.37-18.91,13.23-21.48,20.18
				c-8.1,21.89-3.61,55.99,17.8,72.91c1.44,1.14,1.54,3.08,0.22,4.32C492.97,713.5,492.01,713.84,491.05,713.84z"/>
		</g>
		<g>
			<path class="st1" d="M400.24,279.66c-2.27-0.38-4.5,0.95-4.9,2.93c-2.73,12.89-19.06,39.52-52.19,39.52
				c-34.02,0-58.37-27.42-58.61-27.7c-0.94-1.07-2.49-1.61-4.02-1.41c-1.52,0.2-2.82,1.11-3.33,2.38
				c-4.79,11.56-25.02,14.27-31.64,14.76l4.86,6.85c8.32-1.09,24.51-4.56,31.65-13.84c8.98,8.48,31.3,26.24,61.09,26.24
				c41.55,0,58.01-33.7,60.49-45.5C404.06,281.91,402.54,280.02,400.24,279.66z"/>
		</g>
		<g>
			<path class="st0" d="M641.49,658.37c0,0-10.24,31.22,18.14,41.93c0,0-30.74,20.64-72.79,21.42c0,0,9.03-17.64,14.09-48.58
				C600.92,673.13,624.16,667.08,641.49,658.37z"/>
		</g>
		<g>
			<path class="st1" d="M402.45,710.51l-1.38-1.32c-7.48-7.18,6.89-113.66,13.42-159.11c0.24-1.68,2.01-2.92,3.96-2.65
				c1.95,0.2,3.33,1.73,3.08,3.41c-3.64,25.3-7.92,57.93-11.11,86.74c0.06,0.1,0.13,0.2,0.18,0.32c13.44,25.94,29.84,54.26,34,56.77
				c1.82,0.44,2.54,2.01,2.48,3.18c-0.14,2.59-0.22,4.3-42.63,12.29L402.45,710.51z M409.1,649.85
				c-2.68,25.86-4.18,46.87-3.04,53.71c12.39-2.38,25.28-5.13,31.53-6.83C430.5,688.73,419.25,668.98,409.1,649.85z"/>
		</g>
		<g>
			<path class="st1" d="M320.48,729.34c-1.81,0-3.35-1.19-3.53-2.77c-8.76-80.07-22.9-183.9-23.04-184.94
				c-0.23-1.68,1.16-3.2,3.1-3.4c1.93-0.21,3.71,1,3.94,2.68c0.14,1.04,14.29,104.93,23.06,185.08c0.19,1.69-1.25,3.17-3.2,3.33
				C320.7,729.34,320.59,729.34,320.48,729.34z"/>
		</g>
		<g>
			<path class="st0" d="M555.06,844.43"/>
		</g>
		<g>
			<path class="st0" d="M699.12,841.09"/>
		</g>
	</g>
</g>
<g>
	<path class="st0" d="M96.28,731.99 M98.69,731.99"/>
</g>
</svg>
