<?xml version="1.0" encoding="utf-8"?>
<!-- Generator: Adobe Illustrator 24.0.1, SVG Export Plug-In . SVG Version: 6.00 Build 0)  -->
<svg version="1.1" id="Layer_1" xmlns="http://www.w3.org/2000/svg" xmlns:xlink="http://www.w3.org/1999/xlink" x="0px" y="0px"
	 viewBox="0 0 1584 728" style="enable-background:new 0 0 1584 728;" xml:space="preserve">
<style type="text/css">
	.st0{fill:#E9C250;}
	.st1{fill:#D49D47;}
	.st2{fill:#6C5142;}
	.st3{fill:#3F322A;}
	.st4{fill:#EAE3B3;}
	.st5{fill:none;stroke:#6C5142;stroke-miterlimit:10;}
	.st6{fill:none;stroke:#3F322A;stroke-miterlimit:10;}
	.st7{fill:#003E45;}
	.st8{fill:#5B4335;}
	.st9{fill:#8A6943;}
	.st10{fill:none;stroke:#3F322A;stroke-width:2;stroke-linecap:round;stroke-miterlimit:10;}
	.st11{fill:#118F9C;}
</style>
<rect x="-2.32" y="-9.22" class="st0" width="1585.08" height="756.08"/>
<g>
	<path class="st1" d="M-6.46,358.6c0,0,82.5-27,137.99-25.5l12,94.5l30-229.49c0,0,24-9,52.5-3l-4.5,63l34.5-1.5l9,72l34.38-25.54
		l10.61-157.45l64.5,6l4.5,67.5l34.5,3l7.5,34.5l37.5-4.5l4.5,75h30l-1.5-58.5l22.5-1.5l7.5,36l18-1.5l15-124.49l48-1.5l7.5,85.5
		l31.5,3l-1.5,49.5l37.5-4.5l15-178.49l54-3l3,122.99l52.5-1.5l10.5,52.5l45-3L886,129.11h84l-19.5,116.99h42l24,46.5l21-97.5
		l34.5,7.5c0,0,7.5,54,4.5,75h28.5l22.5-115.49l58.5,9l12,54l40.5,1.5l7.5,113.99l46.5-1.5l24-90l46.5,6l-6,43.5l48,1.5l43.5-84
		l41.21-1.9l-8.21,111.39l122.99,25.5v394.48H-3.46L-6.46,358.6z"/>
	<polygon class="st0" points="180.5,204.67 188.5,204 186.5,225.33 177.83,224 	"/>
	<polygon class="st0" points="195.17,202.67 203.17,202 201.17,223.33 192.5,222 	"/>
	<polygon class="st0" points="211.17,203.33 219.17,202.67 217.17,224 208.5,222.67 	"/>
	<polygon class="st0" points="191.17,235.33 199.17,234.67 197.17,256 188.5,254.67 	"/>
	<polygon class="st0" points="171.83,271.33 179.83,270.67 177.83,292 169.17,290.67 	"/>
	<polygon class="st0" points="187.17,270.67 195.17,270 193.17,291.33 184.5,290 	"/>
	<polygon class="st0" points="202.5,302.67 210.5,302 208.5,323.33 199.83,322 	"/>
	<polygon class="st0" points="181.17,325.33 189.17,324.67 187.17,346 178.5,344.67 	"/>
	<polygon class="st0" points="160.5,346.67 168.5,346 166.5,367.33 157.83,366 	"/>
	<polygon class="st0" points="176.5,367.33 184.5,366.67 182.5,388 173.83,386.67 	"/>
	<polygon class="st0" points="233.66,289.62 225.8,291.22 225.27,269.8 234.03,270.1 	"/>
	<polygon class="st0" points="246.99,287.62 239.13,289.22 238.6,267.8 247.36,268.1 	"/>
	<polygon class="st0" points="235.66,321.62 227.8,323.22 227.27,301.8 236.03,302.1 	"/>
	<polygon class="st0" points="249.66,350.28 241.8,351.89 241.27,330.47 250.03,330.77 	"/>
	<polygon class="st0" points="278.33,358.28 270.46,359.89 269.93,338.47 278.7,338.77 	"/>
	<polygon class="st0" points="295.66,346.95 287.8,348.56 287.27,327.13 296.03,327.44 	"/>
	<polygon class="st0" points="324.95,181.97 317.58,182.1 320.68,162.67 328.55,164.41 	"/>
	<polygon class="st0" points="342.1,183.19 334.73,183.33 337.83,163.89 345.7,165.63 	"/>
	<polygon class="st0" points="337.2,211.36 329.83,211.5 332.93,192.06 340.8,193.8 	"/>
	<polygon class="st0" points="321.58,241.92 314.21,242.29 316.69,222.77 324.61,224.25 	"/>
	<polygon class="st0" points="337.5,241.31 330.13,241.68 332.61,222.15 340.53,223.64 	"/>
	<polygon class="st0" points="355.26,240.7 347.89,241.07 350.37,221.54 358.29,223.03 	"/>
	<polygon class="st0" points="567.26,204.7 559.89,205.07 562.37,185.54 570.29,187.03 	"/>
	<polygon class="st0" points="586.26,205.7 578.89,206.07 581.37,186.54 589.29,188.03 	"/>
	<polygon class="st0" points="562.26,235.7 554.89,236.07 557.37,216.54 565.29,218.03 	"/>
	<polygon class="st0" points="583.26,239.7 575.89,240.07 578.37,220.54 586.29,222.03 	"/>
	<polygon class="st0" points="558.26,270.7 550.89,271.07 553.37,251.54 561.29,253.03 	"/>
	<polygon class="st0" points="581.26,271.7 573.89,272.07 576.37,252.54 584.29,254.03 	"/>
	<polygon class="st0" points="556.26,304.7 548.89,305.07 551.37,285.54 559.29,287.03 	"/>
	<polygon class="st0" points="579.26,301.7 571.89,302.07 574.37,282.54 582.29,284.03 	"/>
	<polygon class="st0" points="619.26,290.7 611.89,291.07 614.37,271.54 622.29,273.03 	"/>
	<polygon class="st0" points="636.26,290.7 628.89,291.07 631.37,271.54 639.29,273.03 	"/>
	<polygon class="st0" points="616.26,323.7 608.89,324.07 611.37,304.54 619.29,306.03 	"/>
	<polygon class="st0" points="633.26,321.7 625.89,322.07 628.37,302.54 636.29,304.03 	"/>
	<polygon class="st0" points="708.26,162.7 700.89,163.07 703.37,143.54 711.29,145.03 	"/>
	<polygon class="st0" points="727.26,159.7 719.89,160.07 722.37,140.54 730.29,142.03 	"/>
	<polygon class="st0" points="905.26,167.7 897.89,168.07 900.37,148.54 908.29,150.03 	"/>
	<polygon class="st0" points="1052.26,226.7 1044.89,227.07 1047.37,207.54 1055.29,209.03 	"/>
	<polygon class="st0" points="1067.26,230.7 1059.89,231.07 1062.37,211.54 1070.29,213.03 	"/>
	<polygon class="st0" points="1045.26,259.7 1037.89,260.07 1040.37,240.54 1048.29,242.03 	"/>
	<polygon class="st0" points="1041.26,292.7 1033.89,293.07 1036.37,273.54 1044.29,275.03 	"/>
	<polygon class="st0" points="1063.26,262.7 1055.89,263.07 1058.37,243.54 1066.29,245.03 	"/>
	<polygon class="st0" points="1141.26,195.7 1133.89,196.07 1136.37,176.54 1144.29,178.03 	"/>
	<polygon class="st0" points="1160.26,198.7 1152.89,199.07 1155.37,179.54 1163.29,181.03 	"/>
	<polygon class="st0" points="1180.26,199.7 1172.89,200.07 1175.37,180.54 1183.29,182.03 	"/>
	<polygon class="st0" points="1136.26,227.7 1128.89,228.07 1131.37,208.54 1139.29,210.03 	"/>
	<polygon class="st0" points="1156.26,230.7 1148.89,231.07 1151.37,211.54 1159.29,213.03 	"/>
	<polygon class="st0" points="1174.26,231.7 1166.89,232.07 1169.37,212.54 1177.29,214.03 	"/>
	<polygon class="st0" points="1131.26,259.7 1123.89,260.07 1126.37,240.54 1134.29,242.03 	"/>
	<polygon class="st0" points="1209.26,253.7 1201.89,254.07 1204.37,234.54 1212.29,236.03 	"/>
	<polygon class="st0" points="1229.26,253.7 1221.89,254.07 1224.37,234.54 1232.29,236.03 	"/>
	<polygon class="st0" points="1208.26,284.7 1200.89,285.07 1203.37,265.54 1211.29,267.03 	"/>
	<polygon class="st0" points="1328.26,282.7 1320.89,283.07 1323.37,263.54 1331.29,265.03 	"/>
	<polygon class="st0" points="1351.26,283.7 1343.89,284.07 1346.37,264.54 1354.29,266.03 	"/>
	<polygon class="st0" points="1323.26,309.7 1315.89,310.07 1318.37,290.54 1326.29,292.03 	"/>
	<polygon class="st0" points="1346.26,318.7 1338.89,319.07 1341.37,299.54 1349.29,301.03 	"/>
	<polygon class="st0" points="1320.26,338.7 1312.89,339.07 1315.37,319.54 1323.29,321.03 	"/>
	<polygon class="st0" points="1345.26,347.7 1337.89,348.07 1340.37,328.54 1348.29,330.03 	"/>
	<polygon class="st0" points="1316.26,375.7 1308.89,376.07 1311.37,356.54 1319.29,358.03 	"/>
	<polygon class="st0" points="1462.26,246.7 1454.89,247.07 1457.37,227.54 1465.29,229.03 	"/>
	<polygon class="st0" points="1478.26,247.7 1470.89,248.07 1473.37,228.54 1481.29,230.03 	"/>
	<polygon class="st0" points="1457.26,277.7 1449.89,278.07 1452.37,258.54 1460.29,260.03 	"/>
	<polygon class="st0" points="1472.26,278.7 1464.89,279.07 1467.37,259.54 1475.29,261.03 	"/>
	<polygon class="st0" points="1453.26,308.7 1445.89,309.07 1448.37,289.54 1456.29,291.03 	"/>
	<polygon class="st0" points="1465.26,342.7 1457.89,343.07 1460.37,323.54 1468.29,325.03 	"/>
	<polygon class="st0" points="1450.26,366.7 1442.89,367.07 1445.37,347.54 1453.29,349.03 	"/>
	<polygon class="st0" points="1465.26,377.7 1457.89,378.07 1460.37,358.54 1468.29,360.03 	"/>
	<polygon class="st0" points="923.26,165.7 915.89,166.07 918.37,146.54 926.29,148.03 	"/>
	<polygon class="st0" points="941.26,165.7 933.89,166.07 936.37,146.54 944.29,148.03 	"/>
	<polygon class="st0" points="955.26,167.7 947.89,168.07 950.37,148.54 958.29,150.03 	"/>
	<polygon class="st0" points="898.26,201.7 890.89,202.07 893.37,182.54 901.29,184.03 	"/>
	<polygon class="st0" points="916.26,199.7 908.89,200.07 911.37,180.54 919.29,182.03 	"/>
	<polygon class="st0" points="934.26,199.7 926.89,200.07 929.37,180.54 937.29,182.03 	"/>
	<polygon class="st0" points="948.26,201.7 940.89,202.07 943.37,182.54 951.29,184.03 	"/>
	<polygon class="st0" points="891.26,234.7 883.89,235.07 886.37,215.54 894.29,217.03 	"/>
	<polygon class="st0" points="909.26,232.7 901.89,233.07 904.37,213.54 912.29,215.03 	"/>
	<polygon class="st0" points="927.26,232.7 919.89,233.07 922.37,213.54 930.29,215.03 	"/>
	<polygon class="st0" points="941.26,234.7 933.89,235.07 936.37,215.54 944.29,217.03 	"/>
	<polygon class="st0" points="883.26,276.7 875.89,277.07 878.37,257.54 886.29,259.03 	"/>
	<polygon class="st0" points="901.26,274.7 893.89,275.07 896.37,255.54 904.29,257.03 	"/>
	<polygon class="st0" points="919.26,274.7 911.89,275.07 914.37,255.54 922.29,257.03 	"/>
	<polygon class="st0" points="933.26,276.7 925.89,277.07 928.37,257.54 936.29,259.03 	"/>
	<polygon class="st0" points="705.26,195.7 697.89,196.07 700.37,176.54 708.29,178.03 	"/>
	<polygon class="st0" points="731.26,192.7 723.89,193.07 726.37,173.54 734.29,175.03 	"/>
	<polygon class="st0" points="705.26,228.7 697.89,229.07 700.37,209.54 708.29,211.03 	"/>
	<polygon class="st0" points="730.26,223.7 722.89,224.07 725.37,204.54 733.29,206.03 	"/>
	<polygon class="st0" points="700.26,257.7 692.89,258.07 695.37,238.54 703.29,240.03 	"/>
	<polygon class="st0" points="387.86,229.99 395.86,229.35 393.81,250.67 385.14,249.32 	"/>
	<polygon class="st0" points="400.53,231.99 408.53,231.35 406.47,252.67 397.81,251.32 	"/>
	<polygon class="st0" points="358.73,183.64 351.39,184.34 353,164.72 360.97,165.85 	"/>
	<polygon class="st0" points="321.28,209.53 313.91,209.66 317.01,190.23 324.87,191.96 	"/>
	<polygon class="st0" points="355.06,211.2 347.72,211.9 349.33,192.28 357.3,193.41 	"/>
</g>
<g>
	<g>
		<g>
			<path class="st2" d="M751.99,631.61c25.47,0.9,23.48,27.35-1.99,26.44C724.54,657.15,726.52,630.71,751.99,631.61z
				 M750.66,649.34c10.52,0.37,11.2-8.6,0.67-8.97C740.82,640,740.14,648.97,750.66,649.34z M776.92,635.1
				c-2.9,1.14-6.36,0.75-7.73-0.88c-1.36-1.63-0.12-3.88,2.79-5.02c2.9-1.14,6.36-0.75,7.73,0.88
				C781.07,631.71,779.83,633.96,776.92,635.1z M782.09,644.95c-3.83,0.45-7.37-0.93-7.9-3.08c-0.54-2.15,2.13-4.26,5.96-4.71
				c3.83-0.45,7.37,0.93,7.9,3.08C788.59,642.4,785.92,644.51,782.09,644.95z M775.28,657.01c-2.71-1.34-6.21-1.19-7.82,0.33
				c-1.6,1.53-0.7,3.85,2.01,5.19c2.72,1.34,6.21,1.19,7.82-0.33C778.9,660.67,777.99,658.35,775.28,657.01z M781.89,647.57
				c-3.74-0.71-7.47,0.41-8.32,2.51c-0.85,2.1,1.48,4.39,5.22,5.11c3.74,0.72,7.47-0.41,8.32-2.51
				C787.97,650.57,785.63,648.29,781.89,647.57z"/>
		</g>
		<g>
			<path class="st2" d="M678.46,668.81c25.47,0.9,23.49,27.35-1.99,26.45C651,694.35,652.99,667.9,678.46,668.81z M677.12,686.54
				c10.52,0.37,11.19-8.6,0.67-8.97C667.28,677.2,666.61,686.17,677.12,686.54z M703.39,672.3c-2.9,1.14-6.36,0.75-7.73-0.88
				c-1.37-1.63-0.12-3.88,2.79-5.02c2.9-1.14,6.36-0.75,7.73,0.88C707.54,668.9,706.29,671.15,703.39,672.3z M708.55,682.15
				c-3.83,0.45-7.37-0.93-7.9-3.08c-0.54-2.15,2.13-4.26,5.96-4.71c3.83-0.45,7.37,0.93,7.9,3.08
				C715.05,679.59,712.38,681.7,708.55,682.15z M701.74,694.2c-2.72-1.34-6.22-1.19-7.82,0.34c-1.6,1.53-0.7,3.85,2.01,5.2
				c2.71,1.34,6.21,1.19,7.82-0.34C705.36,697.87,704.46,695.54,701.74,694.2z M708.35,684.77c-3.74-0.72-7.47,0.41-8.32,2.51
				c-0.86,2.1,1.48,4.39,5.22,5.11c3.74,0.72,7.47-0.41,8.32-2.51C714.44,687.77,712.1,685.48,708.35,684.77z"/>
		</g>
		<g>
			<path class="st2" d="M621.46,631.83c25.48-0.85,27.35,25.6,1.87,26.45C597.85,659.13,595.98,632.68,621.46,631.83z
				 M622.71,649.57c10.52-0.35,9.89-9.32-0.63-8.97C611.56,640.95,612.19,649.92,622.71,649.57z M646.77,633.6
				c-2.72,1.34-6.22,1.18-7.82-0.35c-1.6-1.53-0.68-3.85,2.04-5.19c2.72-1.34,6.22-1.18,7.82,0.35
				C650.41,629.94,649.5,632.26,646.77,633.6z M653.34,643.05c-3.74,0.71-7.47-0.42-8.31-2.53c-0.85-2.11,1.5-4.38,5.25-5.09
				c3.75-0.71,7.47,0.42,8.31,2.53C659.44,640.06,657.09,642.34,653.34,643.05z M648.32,655.5c-2.9-1.15-6.36-0.76-7.73,0.87
				c-1.37,1.63-0.14,3.88,2.76,5.03c2.9,1.15,6.36,0.76,7.73-0.87C652.46,658.91,651.22,656.65,648.32,655.5z M653.53,645.66
				c-3.83-0.45-7.37,0.92-7.92,3.07c-0.55,2.15,2.11,4.26,5.94,4.72c3.83,0.46,7.37-0.92,7.92-3.07
				C660.02,648.23,657.36,646.12,653.53,645.66z"/>
		</g>
		<g>
			<path class="st2" d="M553.7,673.88c25.48-0.85,27.35,25.6,1.87,26.45C530.1,701.18,528.23,674.73,553.7,673.88z M554.96,691.62
				c10.52-0.35,9.89-9.32-0.63-8.97C543.8,682.99,544.44,691.97,554.96,691.62z M579.02,675.64c-2.72,1.34-6.22,1.18-7.81-0.35
				c-1.6-1.53-0.69-3.85,2.04-5.19c2.72-1.34,6.22-1.18,7.82,0.35C582.65,671.99,581.74,674.31,579.02,675.64z M585.59,685.09
				c-3.74,0.71-7.46-0.42-8.31-2.53c-0.85-2.11,1.5-4.39,5.25-5.09c3.75-0.71,7.47,0.42,8.31,2.53
				C591.68,682.11,589.33,684.39,585.59,685.09z M580.57,697.55c-2.9-1.15-6.36-0.76-7.73,0.87c-1.37,1.63-0.14,3.88,2.76,5.03
				c2.9,1.15,6.36,0.76,7.73-0.87C584.7,700.95,583.47,698.7,580.57,697.55z M585.77,687.71c-3.83-0.45-7.37,0.92-7.91,3.07
				c-0.55,2.15,2.11,4.26,5.94,4.72c3.83,0.46,7.37-0.92,7.92-3.07C592.26,690.28,589.6,688.17,585.77,687.71z"/>
		</g>
		<g>
			<path class="st2" d="M489.38,631.64c25.47,0.9,23.48,27.35-1.99,26.45C461.92,657.19,463.91,630.74,489.38,631.64z
				 M488.05,649.38c10.52,0.37,11.19-8.6,0.67-8.97C478.2,640.03,477.53,649,488.05,649.38z M514.31,635.13
				c-2.9,1.15-6.36,0.75-7.73-0.88c-1.37-1.63-0.12-3.88,2.78-5.02c2.9-1.14,6.36-0.75,7.73,0.88
				C518.46,631.74,517.21,633.99,514.31,635.13z M519.47,644.99c-3.83,0.45-7.37-0.93-7.9-3.09c-0.54-2.15,2.13-4.26,5.96-4.71
				c3.83-0.45,7.37,0.93,7.9,3.09C525.97,642.43,523.3,644.54,519.47,644.99z M512.66,657.04c-2.71-1.34-6.21-1.19-7.82,0.33
				c-1.6,1.53-0.7,3.85,2.02,5.19c2.72,1.34,6.21,1.19,7.82-0.33C516.28,660.71,515.38,658.38,512.66,657.04z M519.28,647.6
				c-3.74-0.71-7.46,0.41-8.32,2.51c-0.86,2.1,1.48,4.39,5.22,5.11c3.74,0.72,7.47-0.41,8.32-2.51
				C525.36,650.6,523.02,648.32,519.28,647.6z"/>
		</g>
		<g>
			<path class="st2" d="M415.84,668.84c25.47,0.9,23.48,27.35-1.99,26.44C388.39,694.38,390.37,667.94,415.84,668.84z
				 M414.51,686.57c10.52,0.37,11.19-8.6,0.67-8.97C404.67,677.23,403.99,686.2,414.51,686.57z M440.78,672.33
				c-2.9,1.14-6.36,0.75-7.73-0.88c-1.37-1.63-0.12-3.88,2.78-5.02c2.9-1.14,6.36-0.75,7.73,0.88
				C444.93,668.94,443.68,671.18,440.78,672.33z M445.94,682.18c-3.83,0.45-7.37-0.93-7.9-3.08c-0.54-2.15,2.13-4.26,5.96-4.71
				c3.83-0.45,7.37,0.93,7.9,3.08C452.44,679.63,449.77,681.73,445.94,682.18z M439.13,694.23c-2.72-1.34-6.21-1.19-7.82,0.34
				c-1.6,1.53-0.7,3.85,2.01,5.2c2.72,1.34,6.21,1.19,7.82-0.33C442.75,697.9,441.85,695.58,439.13,694.23z M445.74,684.8
				c-3.74-0.71-7.47,0.41-8.32,2.51c-0.85,2.1,1.48,4.39,5.22,5.1c3.74,0.72,7.47-0.41,8.32-2.51
				C451.82,687.8,449.48,685.51,445.74,684.8z"/>
		</g>
		<g>
			<path class="st2" d="M358.84,631.86c25.48-0.85,27.35,25.6,1.87,26.45C335.24,659.16,333.37,632.71,358.84,631.86z M360.1,649.6
				c10.52-0.35,9.89-9.32-0.63-8.97C348.95,640.98,349.58,649.95,360.1,649.6z M384.16,633.63c-2.72,1.34-6.22,1.18-7.82-0.35
				c-1.6-1.53-0.68-3.85,2.04-5.19c2.72-1.33,6.22-1.18,7.82,0.35C387.79,629.97,386.88,632.29,384.16,633.63z M390.73,643.08
				c-3.74,0.71-7.47-0.42-8.31-2.53c-0.84-2.11,1.5-4.39,5.25-5.09c3.75-0.71,7.47,0.42,8.31,2.53
				C396.82,640.09,394.47,642.37,390.73,643.08z M385.71,655.54c-2.9-1.15-6.36-0.76-7.73,0.87c-1.37,1.63-0.14,3.88,2.76,5.03
				c2.9,1.15,6.36,0.76,7.73-0.87C389.84,658.94,388.61,656.69,385.71,655.54z M390.92,645.69c-3.83-0.46-7.37,0.92-7.92,3.07
				c-0.54,2.15,2.12,4.27,5.94,4.72c3.83,0.46,7.37-0.92,7.92-3.07C397.4,648.27,394.74,646.15,390.92,645.69z"/>
		</g>
		<g>
			<path class="st2" d="M291.09,673.91c25.48-0.85,27.35,25.6,1.87,26.45C267.49,701.21,265.62,674.76,291.09,673.91z
				 M292.34,691.65c10.52-0.35,9.89-9.32-0.63-8.97C281.19,683.03,281.83,692,292.34,691.65z M316.41,675.67
				c-2.72,1.34-6.22,1.18-7.82-0.35c-1.6-1.53-0.68-3.85,2.04-5.19c2.72-1.34,6.22-1.18,7.82,0.35
				C320.04,672.02,319.13,674.34,316.41,675.67z M322.98,685.13c-3.74,0.71-7.47-0.42-8.31-2.53c-0.85-2.11,1.5-4.39,5.25-5.1
				c3.75-0.71,7.47,0.42,8.31,2.53C329.07,682.14,326.72,684.42,322.98,685.13z M317.95,697.58c-2.9-1.15-6.36-0.76-7.73,0.87
				c-1.37,1.63-0.14,3.88,2.76,5.03c2.9,1.15,6.36,0.76,7.73-0.87C322.09,700.99,320.85,698.73,317.95,697.58z M323.16,687.74
				c-3.83-0.46-7.37,0.92-7.92,3.07c-0.55,2.15,2.11,4.26,5.94,4.72c3.83,0.46,7.37-0.92,7.92-3.07
				C329.65,690.31,326.99,688.2,323.16,687.74z"/>
		</g>
		<g>
			<path class="st2" d="M244.45,633.02c25.47,0.9,23.48,27.35-1.99,26.45C216.99,658.56,218.98,632.12,244.45,633.02z
				 M243.12,650.75c10.52,0.37,11.19-8.6,0.67-8.97C233.28,641.41,232.6,650.38,243.12,650.75z M269.38,636.51
				c-2.9,1.14-6.36,0.75-7.73-0.88c-1.37-1.63-0.12-3.88,2.78-5.02c2.9-1.14,6.36-0.75,7.73,0.88
				C273.53,633.12,272.29,635.36,269.38,636.51z M274.54,646.36c-3.83,0.45-7.37-0.93-7.9-3.09c-0.54-2.15,2.13-4.26,5.96-4.71
				c3.83-0.45,7.37,0.93,7.9,3.09C281.04,643.81,278.37,645.91,274.54,646.36z M267.73,658.41c-2.71-1.34-6.22-1.19-7.82,0.33
				c-1.6,1.53-0.7,3.85,2.01,5.2c2.72,1.34,6.21,1.19,7.82-0.34C271.35,662.08,270.45,659.75,267.73,658.41z M274.35,648.98
				c-3.74-0.72-7.47,0.41-8.32,2.51c-0.86,2.1,1.48,4.39,5.22,5.1c3.74,0.72,7.47-0.41,8.32-2.51
				C280.43,651.98,278.09,649.69,274.35,648.98z"/>
		</g>
		<g>
			<path class="st2" d="M170.92,670.21c25.47,0.9,23.48,27.35-1.99,26.45C143.46,695.76,145.45,669.31,170.92,670.21z
				 M169.58,687.95c10.52,0.37,11.19-8.6,0.67-8.97C159.74,678.6,159.06,687.57,169.58,687.95z M195.85,673.7
				c-2.9,1.14-6.36,0.75-7.73-0.88c-1.37-1.63-0.12-3.88,2.78-5.02c2.9-1.14,6.36-0.75,7.73,0.88
				C200,670.31,198.75,672.56,195.85,673.7z M201.01,683.56c-3.83,0.45-7.37-0.93-7.9-3.09c-0.54-2.15,2.13-4.26,5.96-4.71
				c3.83-0.45,7.37,0.93,7.9,3.09C207.51,681,204.84,683.11,201.01,683.56z M194.2,695.61c-2.71-1.34-6.21-1.19-7.82,0.33
				c-1.6,1.53-0.7,3.85,2.01,5.2c2.72,1.34,6.22,1.19,7.82-0.33C197.82,699.28,196.92,696.95,194.2,695.61z M200.81,686.17
				c-3.74-0.72-7.47,0.41-8.32,2.51c-0.86,2.1,1.48,4.39,5.22,5.11c3.74,0.72,7.47-0.41,8.32-2.51
				C206.89,689.18,204.55,686.89,200.81,686.17z"/>
		</g>
		<g>
			<path class="st2" d="M113.92,633.24c25.47-0.85,27.35,25.6,1.87,26.45C90.31,660.54,88.44,634.09,113.92,633.24z M115.17,650.98
				c10.52-0.35,9.89-9.32-0.63-8.97C104.02,642.36,104.65,651.33,115.17,650.98z M139.23,635c-2.72,1.34-6.22,1.18-7.82-0.35
				c-1.6-1.53-0.68-3.85,2.04-5.19c2.72-1.34,6.22-1.18,7.82,0.35C142.87,631.34,141.95,633.67,139.23,635z M145.8,644.45
				c-3.74,0.71-7.46-0.42-8.31-2.53c-0.85-2.11,1.5-4.39,5.25-5.1c3.74-0.71,7.47,0.43,8.31,2.53
				C151.9,641.46,149.55,643.75,145.8,644.45z M140.78,656.91c-2.89-1.15-6.36-0.76-7.73,0.87c-1.37,1.63-0.14,3.88,2.76,5.03
				c2.9,1.15,6.36,0.76,7.73-0.87C144.91,660.31,143.68,658.06,140.78,656.91z M145.99,647.07c-3.83-0.45-7.37,0.92-7.92,3.07
				c-0.55,2.15,2.11,4.26,5.94,4.72c3.83,0.46,7.37-0.92,7.92-3.07C152.47,649.64,149.81,647.53,145.99,647.07z"/>
		</g>
		<g>
			<path class="st2" d="M46.16,675.29c25.48-0.85,27.35,25.6,1.87,26.45C22.56,702.58,20.69,676.14,46.16,675.29z M47.42,693.02
				c10.52-0.35,9.89-9.32-0.63-8.97C36.26,684.4,36.9,693.37,47.42,693.02z M71.48,677.05c-2.72,1.34-6.22,1.18-7.82-0.35
				c-1.6-1.53-0.68-3.85,2.04-5.19c2.72-1.34,6.22-1.18,7.82,0.35C75.11,673.39,74.2,675.72,71.48,677.05z M78.05,686.5
				c-3.74,0.71-7.46-0.42-8.31-2.53c-0.85-2.11,1.5-4.39,5.25-5.09c3.75-0.71,7.47,0.42,8.31,2.53
				C84.14,683.51,81.79,685.79,78.05,686.5z M73.03,698.96c-2.9-1.15-6.36-0.76-7.73,0.87c-1.37,1.63-0.14,3.88,2.76,5.03
				c2.9,1.15,6.36,0.76,7.73-0.87C77.16,702.36,75.92,700.11,73.03,698.96z M78.23,689.12c-3.83-0.46-7.37,0.92-7.92,3.07
				c-0.54,2.15,2.12,4.26,5.94,4.72c3.83,0.46,7.37-0.92,7.92-3.07C84.72,691.69,82.06,689.58,78.23,689.12z"/>
		</g>
	</g>
	<g>
		<g>
			<path class="st2" d="M1537.76,635.66c25.47,0.9,23.48,27.35-1.99,26.45C1510.3,661.21,1512.29,634.76,1537.76,635.66z
				 M1536.43,653.4c10.52,0.37,11.2-8.6,0.67-8.97C1526.59,644.06,1525.91,653.03,1536.43,653.4z M1562.69,639.16
				c-2.9,1.14-6.36,0.75-7.73-0.88c-1.36-1.63-0.12-3.88,2.78-5.02c2.9-1.14,6.36-0.75,7.73,0.88
				C1566.84,635.76,1565.6,638.01,1562.69,639.16z M1567.86,649.01c-3.83,0.45-7.37-0.93-7.9-3.08c-0.54-2.15,2.13-4.26,5.96-4.71
				c3.83-0.45,7.37,0.93,7.9,3.08C1574.36,646.45,1571.69,648.56,1567.86,649.01z M1561.05,661.06c-2.71-1.34-6.21-1.19-7.82,0.34
				c-1.6,1.53-0.7,3.85,2.02,5.19c2.71,1.34,6.21,1.19,7.82-0.33C1564.66,664.73,1563.76,662.4,1561.05,661.06z M1567.66,651.63
				c-3.74-0.71-7.47,0.41-8.32,2.51c-0.86,2.1,1.48,4.39,5.22,5.1c3.74,0.72,7.47-0.41,8.32-2.51
				C1573.74,654.63,1571.4,652.34,1567.66,651.63z"/>
		</g>
		<g>
			<path class="st2" d="M1464.23,672.86c25.47,0.9,23.48,27.35-1.99,26.44C1436.77,698.41,1438.76,671.96,1464.23,672.86z
				 M1462.89,690.59c10.52,0.37,11.19-8.6,0.67-8.97C1453.05,681.25,1452.38,690.22,1462.89,690.59z M1489.16,676.35
				c-2.9,1.14-6.36,0.75-7.73-0.88c-1.37-1.63-0.12-3.88,2.79-5.02c2.9-1.14,6.36-0.75,7.73,0.88
				C1493.31,672.96,1492.06,675.21,1489.16,676.35z M1494.32,686.21c-3.83,0.45-7.37-0.93-7.9-3.08c-0.53-2.15,2.13-4.26,5.96-4.71
				c3.83-0.45,7.37,0.93,7.9,3.09C1500.82,683.65,1498.15,685.76,1494.32,686.21z M1487.51,698.26c-2.72-1.34-6.22-1.19-7.82,0.33
				c-1.6,1.53-0.7,3.85,2.02,5.2c2.72,1.34,6.21,1.19,7.82-0.33C1491.13,701.92,1490.23,699.6,1487.51,698.26z M1494.12,688.82
				c-3.74-0.71-7.47,0.41-8.32,2.51c-0.86,2.1,1.48,4.39,5.22,5.11c3.74,0.72,7.47-0.41,8.32-2.51
				C1500.21,691.82,1497.87,689.54,1494.12,688.82z"/>
		</g>
		<g>
			<path class="st2" d="M1407.23,635.89c25.47-0.85,27.34,25.6,1.87,26.45C1383.62,663.18,1381.75,636.73,1407.23,635.89z
				 M1408.48,653.62c10.52-0.35,9.89-9.32-0.64-8.97C1397.33,645,1397.96,653.97,1408.48,653.62z M1432.54,637.65
				c-2.72,1.34-6.22,1.18-7.82-0.35c-1.6-1.53-0.68-3.85,2.04-5.19c2.72-1.34,6.22-1.18,7.82,0.35
				C1436.18,633.99,1435.26,636.31,1432.54,637.65z M1439.11,647.1c-3.74,0.71-7.47-0.42-8.31-2.53c-0.84-2.11,1.5-4.39,5.25-5.09
				c3.75-0.71,7.47,0.42,8.31,2.53C1445.21,644.11,1442.86,646.39,1439.11,647.1z M1434.09,659.56c-2.9-1.15-6.36-0.76-7.73,0.87
				c-1.37,1.63-0.14,3.88,2.76,5.03c2.9,1.15,6.36,0.76,7.73-0.87C1438.22,662.96,1436.99,660.71,1434.09,659.56z M1439.3,649.72
				c-3.82-0.46-7.37,0.92-7.92,3.07c-0.54,2.15,2.12,4.26,5.94,4.72c3.83,0.46,7.37-0.92,7.92-3.07
				C1445.79,652.29,1443.12,650.17,1439.3,649.72z"/>
		</g>
		<g>
			<path class="st2" d="M1339.47,677.94c25.48-0.85,27.35,25.6,1.87,26.45C1315.87,705.23,1314,678.78,1339.47,677.94z
				 M1340.73,695.67c10.52-0.35,9.89-9.32-0.63-8.97C1329.57,687.05,1330.21,696.02,1340.73,695.67z M1364.79,679.7
				c-2.72,1.34-6.22,1.18-7.81-0.35c-1.6-1.53-0.69-3.85,2.04-5.19c2.72-1.34,6.22-1.18,7.82,0.35
				C1368.42,676.04,1367.51,678.36,1364.79,679.7z M1371.36,689.15c-3.74,0.71-7.46-0.42-8.31-2.53c-0.85-2.1,1.5-4.38,5.25-5.09
				c3.75-0.71,7.47,0.42,8.31,2.53C1377.45,686.16,1375.1,688.44,1371.36,689.15z M1366.34,701.61c-2.9-1.15-6.36-0.76-7.73,0.87
				c-1.37,1.63-0.14,3.88,2.76,5.03c2.9,1.15,6.36,0.76,7.73-0.87C1370.47,705.01,1369.24,702.76,1366.34,701.61z M1371.54,691.77
				c-3.82-0.46-7.37,0.92-7.92,3.07c-0.54,2.15,2.12,4.26,5.94,4.72c3.83,0.46,7.37-0.92,7.92-3.07
				C1378.03,694.34,1375.37,692.22,1371.54,691.77z"/>
		</g>
		<g>
			<path class="st2" d="M1275.15,635.7c25.47,0.9,23.48,27.35-1.99,26.45C1247.69,661.24,1249.68,634.79,1275.15,635.7z
				 M1273.82,653.43c10.52,0.37,11.19-8.6,0.67-8.97C1263.97,644.09,1263.3,653.06,1273.82,653.43z M1300.08,639.19
				c-2.9,1.14-6.36,0.75-7.73-0.88c-1.37-1.63-0.12-3.88,2.78-5.02c2.9-1.14,6.36-0.75,7.73,0.88
				C1304.23,635.8,1302.98,638.04,1300.08,639.19z M1305.24,649.04c-3.83,0.45-7.37-0.93-7.9-3.09c-0.54-2.15,2.13-4.26,5.96-4.71
				c3.83-0.45,7.37,0.93,7.9,3.09C1311.74,646.48,1309.07,648.59,1305.24,649.04z M1298.43,661.09c-2.71-1.34-6.22-1.19-7.82,0.34
				c-1.6,1.53-0.7,3.85,2.01,5.19c2.72,1.34,6.21,1.19,7.82-0.33C1302.05,664.76,1301.15,662.44,1298.43,661.09z M1305.04,651.66
				c-3.74-0.71-7.46,0.41-8.32,2.51c-0.86,2.1,1.48,4.39,5.22,5.11c3.74,0.72,7.47-0.41,8.32-2.51
				C1311.13,654.66,1308.79,652.37,1305.04,651.66z"/>
		</g>
		<g>
			<path class="st2" d="M1201.61,672.89c25.47,0.9,23.48,27.35-1.99,26.44C1174.15,698.44,1176.14,671.99,1201.61,672.89z
				 M1200.28,690.63c10.52,0.37,11.19-8.6,0.67-8.97C1190.44,681.28,1189.76,690.25,1200.28,690.63z M1226.54,676.38
				c-2.9,1.14-6.36,0.75-7.73-0.88c-1.36-1.63-0.12-3.88,2.78-5.02c2.9-1.14,6.36-0.75,7.73,0.88
				C1230.69,672.99,1229.45,675.24,1226.54,676.38z M1231.71,686.24c-3.83,0.45-7.37-0.93-7.9-3.08c-0.53-2.15,2.13-4.26,5.96-4.71
				c3.83-0.45,7.37,0.93,7.9,3.08C1238.21,683.68,1235.54,685.79,1231.71,686.24z M1224.9,698.29c-2.71-1.34-6.22-1.19-7.82,0.33
				c-1.6,1.53-0.7,3.85,2.01,5.2c2.71,1.34,6.21,1.19,7.82-0.34C1228.52,701.96,1227.61,699.63,1224.9,698.29z M1231.51,688.85
				c-3.74-0.72-7.46,0.41-8.32,2.51c-0.86,2.1,1.48,4.39,5.22,5.1c3.74,0.72,7.47-0.41,8.32-2.51
				C1237.59,691.86,1235.25,689.57,1231.51,688.85z"/>
		</g>
		<g>
			<path class="st2" d="M1144.61,635.92c25.48-0.85,27.34,25.6,1.87,26.45C1121.01,663.21,1119.14,636.77,1144.61,635.92z
				 M1145.87,653.65c10.52-0.35,9.89-9.32-0.63-8.97C1134.71,645.03,1135.35,654,1145.87,653.65z M1169.93,637.68
				c-2.72,1.34-6.22,1.18-7.82-0.35c-1.6-1.53-0.68-3.85,2.04-5.19c2.72-1.34,6.22-1.18,7.82,0.35
				C1173.56,634.02,1172.65,636.35,1169.93,637.68z M1176.5,647.13c-3.74,0.71-7.47-0.42-8.31-2.53c-0.85-2.1,1.5-4.38,5.25-5.09
				c3.74-0.71,7.47,0.42,8.31,2.53C1182.59,644.14,1180.24,646.42,1176.5,647.13z M1171.48,659.59c-2.9-1.15-6.36-0.76-7.73,0.87
				s-0.14,3.88,2.76,5.03c2.9,1.15,6.36,0.76,7.73-0.87C1175.61,662.99,1174.38,660.74,1171.48,659.59z M1176.68,649.75
				c-3.83-0.45-7.37,0.92-7.92,3.07c-0.54,2.15,2.12,4.26,5.94,4.72c3.83,0.46,7.37-0.92,7.92-3.07
				C1183.17,652.32,1180.51,650.21,1176.68,649.75z"/>
		</g>
		<g>
			<path class="st2" d="M1076.86,677.97c25.48-0.85,27.35,25.6,1.87,26.45C1053.26,705.26,1051.39,678.82,1076.86,677.97z
				 M1078.11,695.7c10.52-0.35,9.89-9.32-0.63-8.97C1066.96,687.08,1067.59,696.05,1078.11,695.7z M1102.17,679.73
				c-2.72,1.34-6.22,1.18-7.82-0.35c-1.6-1.53-0.68-3.85,2.04-5.19c2.72-1.34,6.22-1.18,7.82,0.35
				C1105.81,676.07,1104.9,678.39,1102.17,679.73z M1108.75,689.18c-3.74,0.71-7.47-0.42-8.31-2.53c-0.84-2.11,1.5-4.39,5.25-5.09
				c3.75-0.71,7.47,0.42,8.31,2.53C1114.84,686.19,1112.49,688.47,1108.75,689.18z M1103.72,701.64c-2.9-1.15-6.36-0.76-7.73,0.87
				c-1.37,1.63-0.14,3.88,2.76,5.03c2.9,1.15,6.36,0.76,7.73-0.87C1107.86,705.04,1106.62,702.79,1103.72,701.64z M1108.93,691.8
				c-3.82-0.46-7.37,0.92-7.92,3.07c-0.54,2.15,2.12,4.26,5.94,4.72c3.83,0.46,7.37-0.92,7.92-3.07
				C1115.42,694.37,1112.76,692.26,1108.93,691.8z"/>
		</g>
		<g>
			<path class="st2" d="M1030.22,637.07c25.47,0.9,23.48,27.35-1.99,26.44C1002.76,662.62,1004.75,636.17,1030.22,637.07z
				 M1028.89,654.81c10.52,0.37,11.19-8.6,0.67-8.97C1019.04,645.46,1018.37,654.43,1028.89,654.81z M1055.15,640.56
				c-2.9,1.14-6.36,0.75-7.73-0.88c-1.37-1.63-0.12-3.88,2.79-5.02c2.9-1.14,6.36-0.75,7.73,0.88
				C1059.3,637.17,1058.06,639.42,1055.15,640.56z M1060.31,650.42c-3.83,0.45-7.37-0.93-7.9-3.09c-0.54-2.15,2.13-4.26,5.96-4.71
				c3.83-0.45,7.37,0.93,7.9,3.09C1066.81,647.86,1064.14,649.97,1060.31,650.42z M1053.5,662.47c-2.71-1.34-6.22-1.19-7.82,0.33
				c-1.6,1.53-0.7,3.85,2.01,5.19c2.72,1.34,6.21,1.19,7.82-0.33C1057.12,666.14,1056.22,663.81,1053.5,662.47z M1060.12,653.03
				c-3.74-0.71-7.47,0.41-8.33,2.51c-0.85,2.1,1.48,4.39,5.22,5.11c3.74,0.72,7.47-0.41,8.32-2.51
				C1066.2,656.04,1063.86,653.75,1060.12,653.03z"/>
		</g>
		<g>
			<path class="st2" d="M956.69,674.27c25.47,0.9,23.48,27.35-1.99,26.45C929.23,699.81,931.21,673.37,956.69,674.27z M955.35,692
				c10.52,0.37,11.19-8.6,0.67-8.97C945.51,682.66,944.83,691.63,955.35,692z M981.62,677.76c-2.9,1.14-6.36,0.75-7.72-0.88
				c-1.37-1.63-0.12-3.88,2.78-5.02c2.9-1.14,6.36-0.75,7.73,0.88C985.77,674.37,984.52,676.62,981.62,677.76z M986.78,687.61
				c-3.83,0.45-7.37-0.93-7.9-3.09c-0.54-2.15,2.13-4.26,5.96-4.71c3.83-0.45,7.37,0.93,7.9,3.09
				C993.28,685.06,990.61,687.16,986.78,687.61z M979.97,699.66c-2.72-1.34-6.21-1.19-7.82,0.33c-1.6,1.53-0.7,3.85,2.01,5.2
				c2.72,1.34,6.22,1.19,7.82-0.33C983.59,703.33,982.69,701.01,979.97,699.66z M986.58,690.23c-3.74-0.72-7.47,0.41-8.32,2.51
				c-0.86,2.1,1.48,4.39,5.22,5.1c3.74,0.72,7.47-0.41,8.32-2.51C992.66,693.23,990.32,690.95,986.58,690.23z"/>
		</g>
		<g>
			<path class="st2" d="M899.69,637.29c25.48-0.85,27.35,25.6,1.87,26.45C876.08,664.59,874.21,638.14,899.69,637.29z
				 M900.94,655.03c10.52-0.35,9.89-9.32-0.64-8.97C889.79,646.41,890.42,655.38,900.94,655.03z M925,639.06
				c-2.72,1.34-6.22,1.18-7.82-0.35c-1.6-1.53-0.68-3.85,2.04-5.19c2.72-1.34,6.22-1.18,7.82,0.35
				C928.63,635.4,927.72,637.72,925,639.06z M931.57,648.51c-3.74,0.71-7.46-0.42-8.31-2.53c-0.85-2.11,1.5-4.39,5.25-5.1
				c3.74-0.71,7.47,0.42,8.31,2.53C937.67,645.52,935.31,647.8,931.57,648.51z M926.55,660.97c-2.89-1.15-6.36-0.76-7.73,0.87
				c-1.37,1.63-0.14,3.88,2.76,5.03c2.9,1.15,6.36,0.76,7.73-0.87C930.68,664.37,929.45,662.12,926.55,660.97z M931.76,651.13
				c-3.83-0.46-7.37,0.92-7.92,3.07c-0.55,2.15,2.11,4.26,5.94,4.72c3.83,0.46,7.37-0.92,7.92-3.07
				C938.24,653.7,935.58,651.58,931.76,651.13z"/>
		</g>
		<g>
			<path class="st2" d="M831.93,679.34c25.48-0.85,27.35,25.6,1.87,26.45C808.33,706.64,806.46,680.19,831.93,679.34z
				 M833.19,697.08c10.52-0.35,9.89-9.32-0.63-8.97C822.03,688.46,822.67,697.43,833.19,697.08z M857.25,681.11
				c-2.72,1.34-6.22,1.18-7.82-0.35c-1.6-1.53-0.69-3.85,2.04-5.19c2.72-1.34,6.22-1.18,7.82,0.35
				C860.88,677.45,859.97,679.77,857.25,681.11z M863.82,690.56c-3.74,0.71-7.47-0.42-8.31-2.53c-0.85-2.11,1.5-4.39,5.25-5.09
				c3.75-0.71,7.47,0.42,8.31,2.53C869.91,687.57,867.56,689.85,863.82,690.56z M858.79,703.02c-2.9-1.15-6.36-0.76-7.73,0.87
				c-1.37,1.63-0.14,3.88,2.76,5.03c2.9,1.15,6.36,0.76,7.73-0.87C862.93,706.42,861.69,704.17,858.79,703.02z M864,693.17
				c-3.83-0.46-7.37,0.92-7.92,3.07c-0.55,2.15,2.12,4.26,5.94,4.72c3.83,0.46,7.37-0.92,7.92-3.07
				C870.49,695.75,867.83,693.63,864,693.17z"/>
		</g>
	</g>
</g>
<g>
	<g>
		<path class="st3" d="M563.06,491.77c-26.13,0-49.94-17.13-50.81-44.13c-1.45-35.42,22.07-51.97,54.3-51.97
			c10.45,0,22.35,2.03,31.36,7.84v-4.35c0-14.23-19.45-15.97-30.2-15.97c-13.65,0-26.71,1.45-38.62,7.55l-5.81-35.13
			c14.81-6.68,34.26-10.16,53.13-10.16c38.04,0,69.69,13.35,69.69,55.16v45.01c0,10.45,0,16.26,11.61,16.26v27
			c-20.03,4.65-46.45,7.26-49.65-19.16C600.23,485.96,579.61,491.77,563.06,491.77z M597.61,433.7c-6.09-4.35-14.23-6.68-22.06-6.39
			c-10.16,0.87-17.13,6.39-15.1,16.84c0.87,6.67,6.39,9.87,13.07,9.87c10.16,0,24.09-5.52,24.09-17.42V433.7z"/>
	</g>
	<g>
		<path class="st3" d="M772.43,344.85c10.45-0.29,20.61,2.61,28.45,8.42l-9.87,40.07c-7.84-5.52-16.26-7.26-24.1-6.97
			c-16.55,0.88-30.78,11.33-30.78,32.53v70.26h-48.49V391.6c0-10.75-0.58-15.97-12.48-15.97v-27c19.46-4.65,57.2-7.84,59.52,19.16
			C740.2,352.4,756.45,344.85,772.43,344.85z"/>
	</g>
	<g>
		<path class="st3" d="M880.44,349.21h42.68v34.84h-42.68v48.78c0,25.55,27.01,23.81,45.01,17.42l4.07,36.88
			c-48.2,13.36-97.56,6.1-97.56-53.13v-49.94l-24.68-3.2v-31.65h24.68l5.52-43.26h42.97V349.21z"/>
	</g>
	<g>
		<path class="st3" d="M1046.54,489.16v-80.14c0.29-15.97-9.01-24.1-19.46-24.1c-11.62,0-23.81,8.71-23.81,24.97v79.27h-49.65V277.2
			h49.65v90.01c6.97-13.94,22.94-21.19,38.62-21.19c40.65,0,54.59,27,54.59,63v80.14H1046.54z"/>
	</g>
	<g>
		<path class="st3" d="M1121.75,418.61c0-98.44,148.95-98.44,148.95,0C1270.7,517.03,1121.75,517.03,1121.75,418.61z
			 M1221.63,418.61c0-40.65-50.52-40.65-50.52,0C1171.11,459.25,1221.63,459.25,1221.63,418.61z M1136.39,321.51
			c7,10.86,5.46,24.3-3.43,30.03c-8.89,5.73-21.78,1.59-28.78-9.27c-6.99-10.86-5.46-24.3,3.43-30.04
			C1116.51,306.5,1129.39,310.65,1136.39,321.51z M1190.72,298.75c3.28,14.63-3.78,28.66-15.76,31.35
			c-11.99,2.69-24.36-6.98-27.64-21.61c-3.29-14.63,3.77-28.67,15.76-31.35C1175.06,274.45,1187.44,284.13,1190.72,298.75z
			 M1259.77,321.51c-7,10.86-5.46,24.3,3.43,30.03c8.89,5.73,21.77,1.59,28.78-9.27c7-10.86,5.46-24.3-3.43-30.04
			C1279.66,306.5,1266.78,310.65,1259.77,321.51z M1205.45,298.75c-3.28,14.63,3.78,28.66,15.76,31.35
			c11.98,2.69,24.36-6.98,27.64-21.61c3.28-14.63-3.78-28.67-15.76-31.35C1221.11,274.45,1208.73,284.13,1205.45,298.75z"/>
	</g>
	<g>
		<path class="st2" d="M360.7,522.03c12.52,0,19.34,6.26,19.34,6.26l-2.06,2.61c0,0-6.66-5.63-17.28-5.63
			c-13.95,0-24.09,11.09-24.09,25.44c0,14.42,9.91,25.44,23.62,25.44c11.89,0,19.02-9.11,19.02-9.11v-10.7h-9.91v-3.17h13.31v25.28
			h-3.41v-4.83c0-1.19,0.08-2.38,0.08-2.38h-0.16c0,0-6.66,8.16-18.94,8.16c-15.45,0-27.18-12.6-27.18-28.69
			C333.04,534.71,345.01,522.03,360.7,522.03z"/>
		<path class="st2" d="M395.18,538.83h3.33v7.53c0,1.82-0.32,3.25-0.32,3.25h0.16c1.98-6.1,6.42-11.09,12.68-11.09
			c1.19,0,2.3,0.23,2.3,0.23v3.33c0,0-0.95-0.16-1.82-0.16c-6.18,0-10.07,5.23-11.81,11.09c-0.87,2.77-1.19,5.71-1.19,8.32v17.12
			h-3.33V538.83z"/>
		<path class="st2" d="M421.42,538.83h3.33v23.93c0,6.9,0.87,13.39,9.75,13.39c9.91,0,16.24-8.72,16.24-17.99v-19.34h3.33v39.63
			h-3.33v-6.98c0-1.82,0.32-3.25,0.32-3.25h-0.16c-1.35,3.73-6.82,11.18-16.41,11.18c-9.75,0-13.08-5.39-13.08-15.46V538.83z"/>
		<path class="st2" d="M468.03,538.83h3.33v4.75c0,1.82-0.24,3.17-0.24,3.17h0.16c0,0,3.25-8.88,14.26-8.88
			c10.62,0,17.12,8.48,17.12,20.76c0,12.6-7.37,20.77-17.59,20.77c-10.3,0-13.87-8.96-13.87-8.96h-0.16c0,0,0.32,1.42,0.32,3.49
			v20.37h-3.33V538.83z M485.07,576.16c7.77,0,14.11-6.42,14.11-17.52c0-10.7-5.71-17.51-13.79-17.51
			c-7.29,0-14.11,5.15-14.11,17.59C471.28,567.52,476.19,576.16,485.07,576.16z"/>
		<path class="st2" d="M531.52,537.88c11.33,0,20.53,8.96,20.53,20.53c0,11.81-9.19,21-20.53,21c-11.33,0-20.53-9.2-20.53-21
			C510.99,546.83,520.19,537.88,531.52,537.88z M531.52,576.16c9.43,0,17.04-7.68,17.04-17.75c0-9.83-7.61-17.28-17.04-17.28
			c-9.43,0-17.04,7.45-17.04,17.28C514.48,568.47,522.09,576.16,531.52,576.16z"/>
		<path class="st2" d="M600.17,537.88c9.99,0,13.71,8.96,13.71,8.96h0.16c0,0-0.32-1.42-0.32-3.25v-20.61h3.33v55.48h-3.33v-4.99
			c0-1.82,0.32-3.01,0.32-3.01h-0.16c0,0-3.41,8.96-14.34,8.96c-10.62,0-17.12-8.48-17.12-20.77
			C582.41,546.04,589.78,537.88,600.17,537.88z M599.69,576.16c7.29,0,14.11-5.15,14.11-17.59c0-8.79-4.52-17.43-13.79-17.43
			c-7.77,0-14.11,6.42-14.11,17.51C585.9,569.34,591.61,576.16,599.69,576.16z"/>
		<path class="st2" d="M647.49,537.88c10.78,0,16.17,8.48,16.17,18.07c0,0.87-0.16,2.14-0.16,2.14h-31.78
			c0,11.49,7.76,18.07,16.96,18.07c7.61,0,12.29-4.99,12.29-4.99l1.82,2.77c0,0-5.55,5.47-14.11,5.47
			c-11.18,0-20.45-8.09-20.45-20.69C628.23,545.33,637.34,537.88,647.49,537.88z M660.17,555c-0.4-9.67-6.18-14.03-12.76-14.03
			c-7.29,0-14.03,4.75-15.46,14.03H660.17z"/>
		<path class="st2" d="M698.38,522.98h18.23c9.67,0,16.88,6.1,16.88,16.17c0,10.07-7.21,16.33-16.88,16.33h-14.82v22.98h-3.41
			V522.98z M716.45,552.3c8.08,0,13.47-4.83,13.47-13.16c0-8.32-5.39-13-13.47-13h-14.66v26.15H716.45z"/>
		<path class="st2" d="M743.72,538.83h3.33v7.53c0,1.82-0.32,3.25-0.32,3.25h0.16c1.98-6.1,6.42-11.09,12.68-11.09
			c1.19,0,2.3,0.23,2.3,0.23v3.33c0,0-0.95-0.16-1.82-0.16c-6.18,0-10.06,5.23-11.81,11.09c-0.87,2.77-1.19,5.71-1.19,8.32v17.12
			h-3.33V538.83z"/>
		<path class="st2" d="M787.16,537.88c11.33,0,20.52,8.96,20.52,20.53c0,11.81-9.19,21-20.52,21c-11.33,0-20.53-9.2-20.53-21
			C766.63,546.83,775.82,537.88,787.16,537.88z M787.16,576.16c9.43,0,17.04-7.68,17.04-17.75c0-9.83-7.61-17.28-17.04-17.28
			c-9.43,0-17.04,7.45-17.04,17.28C770.12,568.47,777.72,576.16,787.16,576.16z"/>
		<path class="st2" d="M819.97,542.08h-5.23v-3.01h5.23v-11.25h3.33v11.25h10.38v3.01H823.3v21.8c0,10.46,6.26,11.81,9.43,11.81
			c1.11,0,1.82-0.16,1.82-0.16v3.09c0,0-0.79,0.16-1.98,0.16c-4.12,0-12.6-1.51-12.6-14.66V542.08z"/>
		<path class="st2" d="M860.08,537.88c10.78,0,16.17,8.48,16.17,18.07c0,0.87-0.16,2.14-0.16,2.14h-31.78
			c0,11.49,7.77,18.07,16.96,18.07c7.61,0,12.29-4.99,12.29-4.99l1.82,2.77c0,0-5.55,5.47-14.11,5.47
			c-11.17,0-20.45-8.09-20.45-20.69C840.82,545.33,849.93,537.88,860.08,537.88z M872.76,555c-0.4-9.67-6.18-14.03-12.76-14.03
			c-7.29,0-14.03,4.75-15.45,14.03H872.76z"/>
		<path class="st2" d="M905.18,537.88c9.43,0,14.18,5.63,14.18,5.63l-2.06,2.7c0,0-4.52-5.07-12.13-5.07
			c-9.27,0-16.96,6.89-16.96,17.59c0,10.54,7.69,17.43,16.96,17.43c8.72,0,13.24-5.7,13.24-5.7l1.74,2.77c0,0-5.07,6.02-14.58,6.18
			l-0.71,3.8c3.25,0.48,5.47,2.54,5.47,5.39c0,4.36-3.49,6.03-7.21,6.03c-2.14,0-3.49-0.32-3.49-0.32v-3.01c0,0,1.43,0.4,3.25,0.4
			c2.14,0,4.28-0.63,4.28-2.93c0-1.82-1.74-3.01-4.84-3.01c-0.47,0-0.95,0.08-0.95,0.08l1.43-6.58
			c-10.14-1.03-18.07-8.79-18.07-20.52C884.73,546.12,894.17,537.88,905.18,537.88z"/>
		<path class="st2" d="M952.5,554.28h2.61v-1.35c0-8.8-4.52-11.81-10.86-11.81c-6.9,0-11.33,3.8-11.33,3.8l-1.9-2.69
			c0,0,4.75-4.36,13.39-4.36c9.11,0,14.03,5.07,14.03,14.98v25.6h-3.33v-5.23c0-2.14,0.32-3.57,0.32-3.57h-0.16
			c0.08,0-3.57,9.75-13.87,9.75c-6.42,0-13.47-3.57-13.47-11.49C927.93,554.44,945.45,554.28,952.5,554.28z M941.57,576.32
			c8.64,0,13.55-8.96,13.55-16.8v-2.14h-2.54c-6.74,0-21.16,0-21.16,10.31C931.42,571.88,934.83,576.32,941.57,576.32z
			 M939.59,522.98c5.31,0,6.26,5.87,9.99,5.87c2.77,0,3.17-3.81,3.17-5.63h3.17c0,5.63-2.22,8.56-6.58,8.56
			c-5.31,0-6.26-5.86-9.99-5.86c-2.78,0-3.17,3.8-3.17,5.63h-3.17C933.01,525.91,935.22,522.98,939.59,522.98z"/>
		<path class="st2" d="M989.44,537.88c11.33,0,20.53,8.96,20.53,20.53c0,11.81-9.19,21-20.53,21s-20.53-9.2-20.53-21
			C968.91,546.83,978.11,537.88,989.44,537.88z M989.44,576.16c9.43,0,17.04-7.68,17.04-17.75c0-9.83-7.61-17.28-17.04-17.28
			c-9.43,0-17.04,7.45-17.04,17.28C972.4,568.47,980.01,576.16,989.44,576.16z"/>
		<path class="st2" d="M1071.72,559.28h-23.54l-7.13,19.18h-3.65l20.77-55.48h3.64l20.77,55.48h-3.65L1071.72,559.28z
			 M1059.91,526.94c0,0-1.19,4.28-2.06,6.66l-8.48,22.51h21.16l-8.4-22.51c-0.87-2.38-2.06-6.66-2.06-6.66H1059.91z"/>
		<path class="st2" d="M1090.98,538.83h3.33v6.97c0,1.82-0.32,3.25-0.32,3.25h0.16c1.35-3.73,6.89-11.18,16.8-11.18
			c10.3,0,13.08,6.1,13.08,15.46v25.12h-3.33v-23.93c0-6.9-0.87-13.39-9.75-13.39c-7.45,0-14.03,5.23-16.01,12.6
			c-0.47,1.66-0.63,3.49-0.63,5.39v19.34h-3.33V538.83z"/>
		<path class="st2" d="M1137.12,522.98h3.96v5.79h-3.96V522.98z M1137.44,538.83h3.33v39.63h-3.33V538.83z"/>
		<path class="st2" d="M1154.71,538.83h3.33v6.97c0,1.82-0.32,3.25-0.32,3.25h0.16c1.98-5.94,9.03-11.18,15.22-11.18
			c7.93,0,11.65,3.73,12.52,10.78h0.16c2.22-5.55,8.24-10.78,15.06-10.78c10.22,0,13.24,6.03,13.24,15.46v25.12h-3.33v-23.93
			c0-7.45-1.51-13.55-9.91-13.55c-6.58,0-12.2,5.87-13.95,12.05c-0.56,1.82-0.79,3.81-0.79,6.1v19.34h-3.33v-23.93
			c0-6.82-0.95-13.55-9.67-13.55c-7.05,0-12.6,6.18-14.42,12.76c-0.47,1.66-0.63,3.49-0.63,5.39v19.34h-3.33V538.83z"/>
		<path class="st2" d="M1248.8,554.28h2.61v-1.35c0-8.8-4.52-11.81-10.86-11.81c-6.9,0-11.33,3.8-11.33,3.8l-1.9-2.69
			c0,0,4.75-4.36,13.39-4.36c9.11,0,14.03,5.07,14.03,14.98v25.6h-3.33v-5.23c0-2.14,0.32-3.57,0.32-3.57h-0.16
			c0.08,0-3.57,9.75-13.87,9.75c-6.42,0-13.47-3.57-13.47-11.49C1224.23,554.44,1241.75,554.28,1248.8,554.28z M1237.86,576.32
			c8.64,0,13.55-8.96,13.55-16.8v-2.14h-2.54c-6.74,0-21.16,0-21.16,10.31C1227.72,571.88,1231.13,576.32,1237.86,576.32z"/>
		<path class="st2" d="M1267.75,522.98h3.33v46.44c0,5.55,2.85,6.18,4.68,6.18c0.63,0,1.19-0.08,1.19-0.08v3.09
			c0,0-0.71,0.16-1.43,0.16c-2.3,0-7.77-0.87-7.77-8.32V522.98z"/>
	</g>
	<g>
		<path class="st3" d="M764.25,212.87c0,0,0-9.14,12.74-20.22c0,0,13.29,6.37,12.46,26.86L764.25,212.87z"/>
		<path class="st3" d="M756.49,213.97l-14.68,21.88c0,0-6.65-4.98-8.31-14.95c-1.66-9.97,0.28-15.78,0.28-15.78
			S745.69,205.39,756.49,213.97z"/>
		<path class="st2" d="M752.13,216.58c0,0-5.41-5.41-15.33-5.86c0,0-0.98,10.41,6.95,17.37
			C743.75,228.1,746.72,220.19,752.13,216.58z"/>
		<path class="st2" d="M768.36,213.43c0,0,3.16-11.27,8.11-12.62c4.96-1.35,7.66,15.33,7.66,15.33S771.51,213.43,768.36,213.43z"/>
		<path class="st3" d="M695.85,282.93c-3.6-3.6-11.91-11.35,3.32-29.35c15.23-18,11.08-27.97,5.54-31.85
			c-5.54-3.88-22.15-4.71-20.21,6.65c1.94,11.35,8.86-9.69,16.62,0c9.97,16.62-37.66,32.68-6.65,60.37L695.85,282.93z"/>
		<path class="st2" d="M716.89,306.47c0,0,2.49,6.65,1.94,14.68c-0.55,8.03-1.38,15.23,0.83,21.05c2.22,5.82,0.28,9.69-1.94,5.82
			c-2.22-3.88-8.31-15.51-8.31-18C709.42,327.51,709.42,310.07,716.89,306.47z"/>
		<path class="st4" d="M755.66,272.96c1.46,1.01,2.77,2.22,1.66,6.92c-1.11,4.71-3.88,9.69-8.58,6.92
			c-4.71-2.77-16.62-26.86-31.01-24.37c-14.4,2.49-27.14,21.88-25.48,32.68c1.66,10.8,4.43,13.57,7.75,19.38
			c3.32,5.82,4.43,8.03,0.83,13.29c-3.6,5.26,0.28,26.86,4.43,26.86s-2.49-18.28,4.15-22.98c6.65-4.71,3.88-9.97,3.6-16.06
			c-0.28-6.09,13.57-15.23,22.15-9.14c8.59,6.09,12.74,25.2,14.12,33.78c1.38,8.59,6.09,20.77,6.09,6.37
			c0-14.4-2.49-18.28-0.55-21.05c1.94-2.77,8.31-9.14,8.31-9.14s3.05,21.6,9.14,32.12c0,0,3.6,2.22,1.66-5.26
			c-1.94-7.48-6.37-57.32,5.26-62.86c0,0,11.91-2.22,22.43-14.12c10.52-11.91,19.66-36.28-11.63-47.91
			c-31.29-11.63-40.99-3.88-46.25,9.69C738.49,241.67,731.29,256.07,755.66,272.96z"/>
		<g>
			<path class="st3" d="M766.05,236.96c-1.15,0-2.08-1.24-2.08-2.77c0-1.53,0.93-2.77,2.08-2.77c1.15,0,2.08,1.24,2.08,2.77
				C768.12,235.72,767.19,236.96,766.05,236.96z"/>
			<path class="st3" d="M790.97,226.99c-1.15,0-2.08-0.99-2.08-2.21c0-1.22,0.93-2.21,2.08-2.21c1.15,0,2.08,0.99,2.08,2.21
				C793.05,226,792.12,226.99,790.97,226.99z"/>
			<path class="st3" d="M784.74,248.31c4.15-3.05-0.83-7.75-0.83-7.75c-4.71-0.28-3.88-4.43,1.11-6.65
				c4.99-2.22,3.05,4.71,3.05,4.71c0.28,1.94,3.6,6.09,7.48,4.15c3.88-1.94,1.38-5.26,1.38-5.26s4.43,4.71,0.28,7.48
				c-4.15,2.77-7.75-0.83-7.75-0.83s2.21,5.26-2.77,6.65c-8.31,3.32-8.03-5.26-8.03-5.26S780.59,251.36,784.74,248.31z"/>
			<path class="st3" d="M753.79,250.58c5.87-3.63,13.51-5.57,13.83-5.65c0.49-0.12,0.99,0.18,1.11,0.67
				c0.12,0.49-0.17,0.99-0.67,1.11c-0.08,0.02-7.68,1.94-13.31,5.43c-0.15,0.09-0.32,0.14-0.48,0.14c-0.31,0-0.61-0.15-0.78-0.43
				C753.23,251.41,753.37,250.85,753.79,250.58z"/>
			<path class="st3" d="M767.95,249.18c0.44-0.25,0.99-0.09,1.25,0.35c0.25,0.44,0.09,1-0.35,1.25c-0.06,0.04-6.26,3.58-11.27,10.23
				c-0.18,0.24-0.45,0.36-0.73,0.36c-0.19,0-0.38-0.06-0.55-0.18c-0.4-0.3-0.48-0.88-0.18-1.28
				C761.35,252.95,767.68,249.33,767.95,249.18z"/>
			<path class="st3" d="M798.61,232.66c0.14-0.27,3.52-6.68,7.1-8.17c0.46-0.19,1,0.03,1.2,0.49c0.19,0.47-0.03,1-0.49,1.19
				c-2.47,1.03-5.3,5.64-6.19,7.33c-0.16,0.31-0.48,0.49-0.81,0.49c-0.14,0-0.29-0.03-0.42-0.1
				C798.54,233.66,798.37,233.11,798.61,232.66z"/>
			<path class="st3" d="M801.44,235.06c0.2-0.12,5.01-2.91,9.66-2.62c0.5,0.03,0.89,0.47,0.86,0.97c-0.03,0.5-0.46,0.89-0.97,0.85
				c-4.09-0.25-8.57,2.34-8.62,2.37c-0.14,0.09-0.3,0.13-0.46,0.13c-0.31,0-0.62-0.16-0.79-0.45
				C800.86,235.88,801.01,235.32,801.44,235.06z"/>
		</g>
		<path class="st2" d="M756.13,273.84c0,0,6.79,9.27,24.04,6.77l-5.01,3.93c0,0-12.46,2.19-17.61-6.63L756.13,273.84z"/>
	</g>
	<g>
		<g>
			<path class="st3" d="M470.44,385.41c16.72,8.51,25.52,25.23,25.52,44c0,35.21-22.88,62.49-65.13,62.49h-98.87V286.83h90.65
				c38.14,0,64.83,24.94,64.83,63.08C487.46,362.52,480.71,377.19,470.44,385.41z"/>
		</g>
	</g>
	<g>
		<g>
			<g>
				<path class="st2" d="M452.42,298.12c-9.54-8.74-7.15,0-23.05-9.54c-15.89-9.54-40.53-6.36-43.71-4.77
					c-3.18,1.59-35.76-5.57-26.22,36.55l2.13,6.39c4.54-4.75,9.36-9.05,12.97-10.37c8.74-3.18,15.89-16.69,17.48-11.13
					c1.59,5.56-8.74,15.1-4.77,20.66c3.98,5.56,2.38,15.89,5.56,19.87c3.18,3.98,15.9,7.95,10.33,12.71
					c-5.57,4.77-11.13,16.69-3.18,28.61c3.93,5.9,11.95,7.12,19.05,6.86c-5.36-21.22-2.33-49.3,7.97-83.15
					c0,0,1.59,27.02,22.25,30.99C449.24,341.82,461.96,306.86,452.42,298.12z"/>
			</g>
			<g>
				<path class="st2" d="M371.94,362.84c3.69,3.95,3.11,14.49-0.43,25.85c13.17-5.36,12.58-19.41,12.58-22.23
					C384.08,364.51,377.43,362.53,371.94,362.84z"/>
			</g>
		</g>
		<g>
			<path class="st3" d="M401.87,308.78l4.18,0.31c-0.51-2.48-1.87-4.3-3.67-4.52c-2.61-0.31-5.13,2.81-5.62,6.98
				c-0.5,4.16,1.21,7.79,3.82,8.1c2.24,0.27,4.41-2,5.29-5.28L401.87,308.78z"/>
		</g>
		<g>
			<path class="st3" d="M380.69,304.43l3.14,0.23c-0.38-1.86-1.4-3.24-2.77-3.4c-1.96-0.23-3.86,2.12-4.23,5.25
				c-0.37,3.13,0.91,5.86,2.87,6.1c1.69,0.2,3.32-1.51,3.98-3.97L380.69,304.43z"/>
		</g>
		<g>
			<path class="st3" d="M418.65,293.75c3.17,0,14.3-1.59,8.34,17.08c0,0,1.19-11.92-3.97-13.11
				C417.86,296.53,418.65,293.75,418.65,293.75z"/>
		</g>
		<g>
			<path class="st3" d="M386.07,288.98c0,0-3.97,1.59-6.36,7.55c-2.38,5.96-7.95,18.28-7.95,21.85l-2.78,1.99
				C368.98,320.37,372.96,290.17,386.07,288.98z"/>
		</g>
		<g>
			<path class="st4" d="M384.08,366.46c0.19,2.81,0.59,16.87-12.58,22.23c-3.03,9.73-6.64,21.16-7.29,32.6
				c-1.59,27.81,4.06,82.98,15.1,82.64c9.84-0.31,0.34-51.32,0.34-51.32l13.17,2.05c0,0-2.38,46.88,3.18,46.88
				c5.57,0,10.33-7.94,10.33-7.94l7.15-0.8c0,0-11.12,7.95,0,8.74c11.13,0.79,58.01,0.79,45.29-11.92c0,0,34.97-1.59,33.38-35.76
				c0,0-10.33,14.3-29.41,19.87c0,0,2.38-28.61-23.84-48.47c-10.04-7.6-16.57-18.13-19.89-31.29c-7.1,0.27-15.12-0.96-19.05-6.86
				c-7.95-11.92-2.38-23.84,3.18-28.61c5.56-4.77-7.16-8.74-10.33-12.71c-3.18-3.97-1.59-14.3-5.56-19.87
				c-3.97-5.56,6.36-15.1,4.77-20.66c-1.59-5.56-8.74,7.95-17.48,11.13c-3.61,1.31-8.43,5.61-12.97,10.37l0.02-0.06
				c0,0-4.97,31.28,8.97,35.78C375.18,363.97,383.88,363.37,384.08,366.46z M407.13,484.86c-1.97-0.74,0.8-13.51,0.8-26.22
				c0,0,4.74,11.98,10.33,23.04C418.25,481.68,411.59,486.54,407.13,484.86z"/>
		</g>
		<g>
			<path class="st3" d="M372.56,340.23c0,0,8.35-3.97,9.14-9.14c0.79-5.16-16.29-2.78-16.29-2.78S363.42,335.86,372.56,340.23z"/>
		</g>
		<g>
			<g>
				<path class="st3" d="M372.56,351.76c-0.66,0-1.19-0.53-1.19-1.19v-13.51c0-0.66,0.53-1.19,1.19-1.19c0.66,0,1.19,0.53,1.19,1.19
					v13.51C373.75,351.23,373.22,351.76,372.56,351.76z"/>
			</g>
		</g>
		<g>
			<path class="st3" d="M431.76,487.05c-0.24,0-0.48-0.09-0.67-0.26c-6.62-6.07-8.05-18.18-5.58-25.93c1.5-4.71,4.24-7.54,7.71-7.98
				c10.08-1.25,15.82,7.23,16.06,7.59c0.31,0.46,0.18,1.08-0.27,1.39c-0.46,0.3-1.08,0.18-1.39-0.27
				c-0.05-0.08-5.39-7.83-14.14-6.71c-3.58,0.45-5.33,4.33-6.06,6.6c-2.29,7.16-1.02,18.32,5.02,23.85
				c0.41,0.37,0.44,1.01,0.06,1.41C432.3,486.95,432.03,487.05,431.76,487.05z"/>
		</g>
		<g>
			<path class="st3" d="M406.15,345.02c-0.64-0.12-1.27,0.31-1.38,0.96c-0.77,4.22-5.38,12.93-14.72,12.93
				c-9.59,0-16.46-8.97-16.53-9.06c-0.26-0.35-0.7-0.53-1.13-0.46c-0.43,0.06-0.8,0.36-0.94,0.78c-1.35,3.78-7.06,4.67-8.92,4.83
				l1.37,2.24c2.35-0.36,6.91-1.49,8.93-4.53c2.53,2.77,8.83,8.58,17.23,8.58c11.72,0,16.36-11.02,17.06-14.88
				C407.22,345.76,406.79,345.14,406.15,345.02z"/>
		</g>
		<g>
			<path class="st2" d="M474.2,468.91c0,0-2.89,10.21,5.12,13.72c0,0-8.67,6.75-20.53,7.01c0,0,2.55-5.77,3.97-15.89
				C462.75,473.74,469.3,471.76,474.2,468.91z"/>
		</g>
		<g>
			<path class="st3" d="M406.77,485.96l-0.39-0.43c-2.11-2.35,1.94-37.18,3.79-52.05c0.07-0.55,0.57-0.95,1.11-0.87
				c0.55,0.06,0.94,0.57,0.87,1.11c-1.03,8.28-2.23,18.95-3.13,28.37c0.02,0.04,0.04,0.07,0.05,0.1c3.79,8.49,8.42,17.75,9.59,18.57
				c0.51,0.14,0.72,0.66,0.7,1.04c-0.04,0.85-0.06,1.41-12.02,4.02L406.77,485.96z M408.65,466.12c-0.76,8.46-1.18,15.33-0.86,17.57
				c3.49-0.78,7.13-1.68,8.9-2.23C414.68,478.84,411.51,472.38,408.65,466.12z"/>
		</g>
		<g>
			<path class="st3" d="M383.65,492.13c-0.51,0-0.95-0.39-1-0.91c-2.47-26.19-6.46-60.16-6.5-60.5c-0.06-0.55,0.33-1.05,0.88-1.11
				c0.54-0.07,1.05,0.33,1.11,0.88c0.04,0.34,4.03,34.33,6.5,60.54c0.05,0.55-0.35,1.04-0.9,1.09
				C383.71,492.13,383.68,492.13,383.65,492.13z"/>
		</g>
	</g>
	<g>
		<g>
			<path class="st2" d="M1010.07,490.35c-11.86-1.69-4.52-18.91-3.11-27.67c1.41-8.75-0.85-36.13-25.97-46.58
				c-25.13-10.44-16.37-23.43-21.17-41.5c-1.18-4.44-2.36-7.19-4.23-9.93c0.01-0.01,0.02-0.01,0.03-0.02
				c1.48-1.06,1.24-4.31,1.24-4.31c-0.94-0.56-3.9,0.03-4.55,0.17c-5.27-5.4-11.34-6.68-14.22-7.93c-4.52-1.98-9.03-3.39-9.03-3.39
				c-1.98,2.54-2.54,8.75,1.98,14.11c4.52,5.36,7.06,12.42,9.03,38.39c0.25,3.26,0.8,6.46,1.59,9.57c-0.95,9.82-2.73,11.6-9.5,15.55
				c-6.78,3.95-6.78,10.44-4.23,8.19c2.54-2.26,11.57-5.93,13.83-6.49c2.26-0.57,3.67,3.39,0.56,9.6
				c-3.11,6.21-3.67,13.27-0.85,14.4c2.82,1.13,2.82-6.21,5.08-10.73c1.47-2.94,4.01-5.64,5.61-7.16
				c6.52,10.18,13.73,17.49,16.41,19.87c5.08,4.52,5.51,13.53,2.54,17.79c-3.25,4.66-0.28,12.99-6.49,14.4
				c-6.21,1.41-11.57,0.85-11.01,3.95c0.57,3.11,6.21,1.98,12.14,1.69c5.93-0.28,9.03,2.54,9.03,2.54s-12.7,3.39-8.75,6.21
				c3.95,2.82,11.57-1.69,11.57-1.69c4.52,0.57,17.79-0.28,24.56-2.26c6.78-1.98,11.96-1.89,17.62,0.56
				c8.47,3.67-2.73,7.8-5.76,9.88c-5.36,3.67,9.15-1.41,9.15-1.41C1039.26,496.85,1021.92,492.05,1010.07,490.35z"/>
			<path class="st4" d="M931.02,363.32c-4.52-5.36-3.95-11.57-1.98-14.11c0,0,4.52,1.41,9.03,3.39c1.51,0.66,3.91,1.33,6.61,2.59
				c1.43,6.22,2.4,16.12,5.53,21.12c4.23,6.78,3.11,20.89-2.54,25.97c-3.47,3.12-5.02,6.14-6.03,8.99c-0.79-3.11-1.35-6.3-1.59-9.55
				C938.08,375.74,935.54,368.68,931.02,363.32z"/>
			<path class="st5" d="M958.41,424.01c-0.57-6.49-3.95-11.29,17.5-1.98c21.45,9.32,25.41,39.8,7.9,44.04
				c-17.5,4.23-4.8,28.51-8.19,27.67c-1.91-0.48-4.7-5.86-6.79-10.49c0.91-3.45-0.2-8.49,2.27-10.97
				c3.67-3.67,2.54-13.27-2.54-17.79c-2.66-2.37-9.82-9.63-16.32-19.73C955.09,431.2,958.76,428.04,958.41,424.01z"/>
			<path class="st4" d="M957.56,424.01c-0.57-6.49-3.95-11.29,17.5-1.98c21.46,9.32,25.41,39.8,7.9,44.04
				c-17.5,4.23-4.8,28.51-8.19,27.67c-1.9-0.48-4.7-5.86-6.79-10.49c0.91-3.45-0.2-8.49,2.27-10.97c3.67-3.67,2.54-13.27-2.54-17.79
				c-2.66-2.37-9.88-8.81-16.37-18.91C954.18,432.02,957.91,428.04,957.56,424.01z"/>
			<path class="st4" d="M945.21,359.93c0,0,5.72,0.85,6.56,3.18c0.85,2.33-7.2,8.05-10.8,6.56
				C937.37,368.19,945.21,359.93,945.21,359.93z"/>
			<g>
				<path class="st2" d="M936.95,362.47c-7.2,0-3.18-5.72-2.12-7.83c0.64-1.28-0.03-2.7-0.66-3.64c1.22,0.47,2.57,1,3.91,1.59
					c0.86,0.37,2,0.75,3.32,1.24C941.56,357.28,941.76,362.47,936.95,362.47z"/>
			</g>
			<g>
				<path class="st3" d="M936.95,355.27c1.05,0,1.91,0.85,1.91,1.91c0,1.05-0.85,1.91-1.91,1.91c-1.05,0-1.91-0.85-1.91-1.91
					C935.04,356.13,935.9,355.27,936.95,355.27z"/>
				<path class="st3" d="M927.66,351.19c0.02-0.07,0.07-0.13,0.12-0.17c-0.35-0.73-0.11-2.4,0.71-2.52
					c0.99-0.14,2.82,1.27,2.82,1.27s-1.85,1.33-2.83,1.55c0,0.04,0,0.09-0.02,0.14c-0.01,0.04-1.18,3.7,0.47,6.76
					c0.96,1.79,2.7,3.04,5.16,3.71c0.23,0.06,0.36,0.29,0.3,0.52c-0.05,0.19-0.22,0.31-0.41,0.31c-0.04,0-0.07,0-0.11-0.01
					c-2.7-0.74-4.61-2.13-5.69-4.13C926.37,355.22,927.6,351.35,927.66,351.19z"/>
			</g>
		</g>
		<path class="st2" d="M946.1,361.34c0,0-3.39,5.08-0.28,4.8C948.93,365.86,952.88,362.19,946.1,361.34z"/>
		<path class="st6" d="M948.36,407.92c-1.98,2.82-3.39,8.75-3.67,24"/>
		<path class="st6" d="M978.85,460.43c0,0-20.28,18.07-4.07,34.44"/>
	</g>
</g>
<g>
	<path class="st3" d="M1322.18,488.97c0,4.98-3.17,9.02-7.08,9.02c-3.91,0-7.07-4.04-7.07-9.02c0-4.98,3.17-9.02,7.07-9.02
		C1319.01,479.95,1322.18,483.99,1322.18,488.97z"/>
	<polygon class="st7" points="1316.63,492.3 1323.29,491.75 1324.4,483.15 1321.62,483.7 1319.96,488.7 1315.52,490.36 	"/>
	<path class="st8" d="M1343.96,475.79c-1.49,2.82,6.8,5.41,5.13,10.4c-1.66,4.99-2.5,7.77,1.66,7.77c4.16,0,6.66-14.7,3.88-19.98
		C1351.87,468.72,1345.2,473.44,1343.96,475.79z"/>
	<path class="st3" d="M1346.82,452.31c7.7-1.87,29.34-15.81,11.86-29.75c-17.48-13.94-10.2-20.81-2.08-20.6
		c8.12,0.21,24.55,9.36,24.76,25.18c0.21,15.81-15.19,28.51-29.96,30.59L1346.82,452.31z"/>
	<path class="st9" d="M1266.5,451.69c0,0,6.1,48.55,12.48,49.38c4.72,1.11,1.94-14.15,1.94-14.15s8.05-1.11,9.99,4.16
		c1.94,5.27,5.27,14.15,9.43,14.15c4.16,0,1.11-13.04,1.11-13.04s18.59-1.39,29.96-11.38c11.38-9.99,16.37-4.44,21.64,1.11
		c5.27,5.55,2.69,1.22,3.24,4.55c0.55,3.33,1.39,7.77,4.99,6.66c3.61-1.11,7.02-3.71,1.2-14.54c-5.83-10.82-7.49-28.85-28.02-33.57
		c-20.53-4.72-27.74-4.44-27.74-4.44s14.43-19.42-14.43-39.12c-28.85-19.7-51.05,6.1-47.17,22.75
		C1249.02,440.87,1256.51,447.25,1266.5,451.69z"/>
	<path class="st3" d="M1280.86,397.45c0,0,2.08-19.98-2.5-21.64c0,0-9.78,7.07-12.49,20.18L1280.86,397.45z"/>
	<path class="st8" d="M1294.44,402.69c0,0-20.36,7.28-28.21,26.25c-7.85,18.97-10.63,15.64-10.63,15.64s-21.64-16.09-5.55-39.4
		C1266.14,381.88,1292.22,400.47,1294.44,402.69z"/>
	<path class="st3" d="M1301.67,411.39c0,0,13.94-4.16,21.02-1.67c0,0-1.04,7.49-14.15,13.11L1301.67,411.39z"/>
	<path class="st4" d="M1276.49,459.18c0,0,0.28,22.47,4.44,27.74c0,0,6.94-0.83,9.99,4.16c0,0-4.99-17.48-5.27-30.8L1276.49,459.18z
		"/>
	<path class="st3" d="M1306.45,441.77c0,0-9.78,18.8-39.95,9.92v5.27C1266.5,456.96,1300.21,471.11,1306.45,441.77z"/>
	<path class="st3" d="M1252.35,412.02c0,0-0.56,11.65,13.59,6.94C1265.94,418.95,1254.85,421.45,1252.35,412.02z"/>
	<path class="st3" d="M1283.15,427.83c0,0-3.33,6.38,0.28,9.71c3.61,3.33,8.88,1.11,9.99-0.55c0,0-5.55,2.77-8.88-0.56
		C1281.2,433.1,1283.15,427.83,1283.15,427.83z"/>
	<g>
		<path class="st3" d="M1272.19,444.91c-0.89,0-1.85-0.16-2.89-0.48c-2.09-0.64-3.62-1.86-4.55-3.62c-1.16-2.2-1.1-4.76-0.87-6.49
			c-1.27,0.62-2.98,1.14-4.71,1.04c-1.8-0.11-3.34-0.9-4.44-2.31c-2.73-3.47-1.38-7.09-0.28-8.51c0.28-0.37,0.8-0.43,1.17-0.15
			c0.36,0.28,0.43,0.8,0.15,1.17c-0.1,0.13-2.33,3.17,0.27,6.47c0.81,1.03,1.9,1.59,3.23,1.67c2.31,0.14,4.68-1.19,5.24-1.75
			l2.38-2.38l-1,3.22c-0.01,0.04-1.28,4.22,0.33,7.26c0.71,1.35,1.91,2.29,3.56,2.8c1.98,0.61,3.58,0.52,4.78-0.25
			c1.87-1.22,2.2-3.74,2.2-3.77c0.05-0.45,0.47-0.78,0.92-0.73c0.46,0.05,0.78,0.47,0.73,0.92c-0.02,0.14-0.43,3.33-2.94,4.97
			C1274.53,444.61,1273.43,444.91,1272.19,444.91z"/>
	</g>
	<path class="st3" d="M1265.11,432.55c0,0-3.33-5.55,1.11-3.61C1270.66,430.88,1268.72,433.38,1265.11,432.55z"/>
	<path class="st10" d="M1283.98,444.47c0,0,7.49,4.16,8.88,7.49"/>
	<path class="st10" d="M1279.82,447.53c0,0,6.1,5.83,6.94,10.26"/>
	<path class="st10" d="M1249.85,421.17c0,0-3.33-8.05-8.05-9.71"/>
	<path class="st10" d="M1248.19,425.33c0,0-6.66-2.77-9.71-3.05"/>
	<path class="st11" d="M1326.89,442.92c0,0,6.66,32.88-0.83,42.45c0,0,12.9-9.16,17.89-9.57c0,0,2.5-23.31-4.16-29.55
		L1326.89,442.92z"/>
	<polygon class="st3" points="1328.28,478.43 1346.04,471.77 1345.48,475.93 1326.06,485.37 	"/>
	<polygon class="st7" points="1337.44,473.99 1338.83,494.24 1350.2,502.29 1351.59,497.3 1342.43,491.75 1340.77,473.16 	"/>
	<path class="st3" d="M1368.51,499.79c0,6.74-4.29,12.21-9.57,12.21c-5.29,0-9.57-5.46-9.57-12.21c0-6.74,4.29-12.21,9.57-12.21
		C1364.23,487.59,1368.51,493.05,1368.51,499.79z"/>
	<ellipse class="st2" cx="1360.33" cy="499.79" rx="5.69" ry="7.25"/>
	<path class="st9" d="M1363.84,499.79c0,2.47-1.26,4.48-2.82,4.48c-1.56,0-2.82-2.01-2.82-4.48c0-2.47,1.26-4.48,2.82-4.48
		C1362.58,495.31,1363.84,497.32,1363.84,499.79z"/>
</g>
</svg>
