<?xml version="1.0" encoding="utf-8"?>
<!-- Generator: Adobe Illustrator 24.0.1, SVG Export Plug-In . SVG Version: 6.00 Build 0)  -->
<svg version="1.1" id="Layer_1" xmlns="http://www.w3.org/2000/svg" xmlns:xlink="http://www.w3.org/1999/xlink" x="0px" y="0px"
	 viewBox="0 0 850.39 850.39" style="enable-background:new 0 0 850.39 850.39;" xml:space="preserve">
<style type="text/css">
	.st0{fill:#3F322A;}
	.st1{fill:#6C5142;}
	.st2{fill:#EAE3B3;}
</style>
<g>
	<g>
		<g>
			<g>
				<path class="st0" d="M534.45,296.84c32.96,16.77,50.31,49.74,50.31,86.76c0,69.41-45.11,123.2-128.41,123.2H261.43V102.49
					h178.73c75.19,0,127.83,49.16,127.83,124.36C567.99,251.72,554.7,280.64,534.45,296.84z"/>
			</g>
		</g>
		<g>
			<g>
				<path class="st1" d="M498.92,124.75c-18.8-17.24-14.1,0-45.44-18.8c-31.33-18.8-79.9-12.53-86.17-9.4
					c-6.26,3.13-70.5-10.97-51.7,72.07l4.2,12.6c8.94-9.37,18.45-17.85,25.57-20.44c17.23-6.27,31.33-32.9,34.46-21.93
					c3.14,10.97-17.23,29.77-9.4,40.73c7.84,10.97,4.7,31.33,10.97,39.17c6.26,7.84,31.34,15.67,20.37,25.07
					c-10.97,9.4-21.93,32.9-6.27,56.4c7.76,11.63,23.57,14.05,37.56,13.52c-10.56-41.83-4.6-97.2,15.71-163.93
					c0,0,3.14,53.27,43.87,61.1C492.66,210.91,517.72,141.98,498.92,124.75z"/>
			</g>
			<g>
				<path class="st1" d="M340.24,252.35c7.28,7.79,6.14,28.56-0.85,50.97c25.96-10.57,24.8-38.28,24.8-43.84
					C364.19,255.64,351.07,251.75,340.24,252.35z"/>
			</g>
		</g>
		<g>
			<path class="st0" d="M399.25,145.76l8.24,0.61c-1.01-4.88-3.68-8.48-7.24-8.9c-5.14-0.61-10.11,5.54-11.09,13.75
				c-0.98,8.2,2.39,15.35,7.54,15.97c4.42,0.53,8.69-3.95,10.42-10.41L399.25,145.76z"/>
		</g>
		<g>
			<path class="st0" d="M357.5,137.2l6.2,0.46c-0.76-3.67-2.77-6.38-5.45-6.7c-3.86-0.46-7.6,4.17-8.34,10.34
				c-0.74,6.18,1.8,11.56,5.67,12.02c3.33,0.39,6.54-2.97,7.85-7.84L357.5,137.2z"/>
		</g>
		<g>
			<path class="st0" d="M432.34,116.13c6.26,0,28.2-3.14,16.45,33.68c0,0,2.35-23.5-7.83-25.85
				C430.77,121.61,432.34,116.13,432.34,116.13z"/>
		</g>
		<g>
			<path class="st0" d="M368.1,106.73c0,0-7.84,3.13-12.53,14.88c-4.7,11.75-15.67,36.04-15.67,43.09l-5.48,3.92
				C334.41,168.61,342.24,109.07,368.1,106.73z"/>
		</g>
		<g>
			<path class="st2" d="M364.19,259.48c0.37,5.55,1.16,33.27-24.8,43.84c-5.97,19.18-13.08,41.72-14.38,64.27
				c-3.14,54.83,8.01,163.61,29.77,162.94c19.4-0.6,0.66-101.19,0.66-101.19l25.97,4.05c0,0-4.7,92.44,6.26,92.44
				c10.97,0,20.37-15.67,20.37-15.67l14.1-1.57c0,0-21.93,15.67,0,17.24c21.94,1.57,114.38,1.57,89.3-23.5
				c0,0,68.94-3.14,65.81-70.5c0,0-20.36,28.2-57.97,39.17c0,0,4.7-56.41-47-95.57c-19.79-14.99-32.67-35.74-39.21-61.68
				c-14,0.52-29.81-1.89-37.56-13.52c-15.66-23.5-4.7-47,6.27-56.4c10.97-9.4-14.1-17.23-20.37-25.07
				c-6.27-7.83-3.13-28.2-10.97-39.17c-7.83-10.97,12.54-29.77,9.4-40.73c-3.13-10.97-17.23,15.67-34.46,21.93
				c-7.12,2.59-16.63,11.07-25.57,20.44l0.05-0.11c0,0-9.8,61.67,17.69,70.54C346.63,254.58,363.78,253.4,364.19,259.48z
				 M409.62,492.93c-3.88-1.45,1.57-26.64,1.57-51.7c0,0,9.34,23.62,20.37,45.43C431.55,486.66,418.42,496.23,409.62,492.93z"/>
		</g>
		<g>
			<path class="st0" d="M341.46,207.78c0,0,16.46-7.84,18.02-18.02c1.56-10.18-32.12-5.48-32.12-5.48S323.45,199.16,341.46,207.78z"
				/>
		</g>
		<g>
			<g>
				<path class="st0" d="M341.46,230.5c-1.3,0-2.35-1.05-2.35-2.35v-26.64c0-1.3,1.05-2.35,2.35-2.35c1.3,0,2.35,1.06,2.35,2.35
					v26.64C343.82,229.45,342.76,230.5,341.46,230.5z"/>
			</g>
		</g>
		<g>
			<path class="st0" d="M458.19,497.25c-0.48,0-0.96-0.17-1.33-0.52c-13.05-11.96-15.87-35.85-10.99-51.13
				c2.96-9.29,8.37-14.88,15.21-15.73c19.88-2.47,31.19,14.25,31.66,14.96c0.6,0.9,0.36,2.13-0.54,2.73
				c-0.91,0.6-2.13,0.36-2.74-0.54c-0.11-0.15-10.62-15.44-27.88-13.24c-7.06,0.88-10.52,8.54-11.95,13.02
				c-4.51,14.12-2,36.11,9.9,47.02c0.8,0.74,0.86,1.98,0.12,2.79C459.25,497.03,458.72,497.25,458.19,497.25z"/>
		</g>
		<g>
			<path class="st0" d="M407.69,217.22c-1.26-0.24-2.5,0.61-2.73,1.89c-1.52,8.32-10.6,25.49-29.03,25.49
				c-18.92,0-32.46-17.68-32.59-17.86c-0.52-0.69-1.38-1.04-2.23-0.91c-0.85,0.13-1.57,0.71-1.85,1.54
				c-2.67,7.45-13.91,9.2-17.6,9.52l2.7,4.42c4.63-0.7,13.63-2.94,17.6-8.93c4.99,5.47,17.41,16.92,33.97,16.92
				c23.11,0,32.26-21.73,33.64-29.35C409.81,218.67,408.97,217.45,407.69,217.22z"/>
		</g>
		<g>
			<path class="st1" d="M541.85,461.47c0,0-5.69,20.14,10.09,27.04c0,0-17.1,13.31-40.48,13.81c0,0,5.02-11.38,7.83-31.33
				C519.29,471,532.21,467.09,541.85,461.47z"/>
		</g>
		<g>
			<path class="st0" d="M408.92,495.1l-0.77-0.85c-4.16-4.63,3.83-73.31,7.46-102.62c0.13-1.08,1.12-1.88,2.2-1.71
				c1.08,0.13,1.85,1.12,1.72,2.2c-2.02,16.31-4.4,37.37-6.18,55.94c0.04,0.07,0.07,0.13,0.1,0.2c7.48,16.73,16.59,35,18.91,36.62
				c1.01,0.28,1.41,1.3,1.38,2.05c-0.08,1.67-0.12,2.77-23.71,7.93L408.92,495.1z M412.61,455.98c-1.49,16.68-2.32,30.23-1.69,34.64
				c6.89-1.54,14.06-3.31,17.54-4.41C424.51,481.05,418.26,468.32,412.61,455.98z"/>
		</g>
		<g>
			<path class="st0" d="M363.33,507.25c-1,0-1.86-0.76-1.96-1.79c-4.87-51.64-12.73-118.61-12.81-119.28
				c-0.13-1.08,0.65-2.06,1.73-2.19c1.08-0.13,2.07,0.64,2.19,1.73c0.08,0.67,7.95,67.68,12.82,119.37c0.1,1.09-0.69,2.05-1.78,2.15
				C363.46,507.25,363.39,507.25,363.33,507.25z"/>
		</g>
		<g>
			<path class="st1" d="M186.65,604c11.16,5.68,17.04,16.84,17.04,29.38c0,23.5-15.28,41.72-43.48,41.72h-66v-136.9h60.52
				c25.46,0,43.28,16.65,43.28,42.11C198.01,588.72,193.51,598.51,186.65,604z M130.05,569.33v22.92h22.13
				c6.85,0,10.38-5.29,10.58-10.77c0.2-6.07-3.33-12.14-10.58-12.14H130.05z M130.05,621.24v22.72h27.62
				c6.85,0,9.99-5.09,10.58-10.58c0.2-4.11-1.57-8.42-4.9-10.77c-1.76-0.78-3.52-1.37-5.88-1.37H130.05z"/>
		</g>
		<g>
			<path class="st1" d="M250.91,677.64c-17.63,0-33.69-11.55-34.27-29.77c-0.98-23.89,14.89-35.06,36.63-35.06
				c7.05,0,15.08,1.37,21.15,5.29v-2.94c0-9.6-13.12-10.77-20.37-10.77c-9.2,0-18.02,0.98-26.05,5.09l-3.92-23.7
				c9.99-4.51,23.11-6.85,35.84-6.85c25.66,0,47.01,9.01,47.01,37.21v30.36c0,7.05,0,10.97,7.83,10.97v18.21
				c-13.51,3.14-31.34,4.89-33.49-12.93C275.98,673.72,262.07,677.64,250.91,677.64z M274.21,638.47c-4.11-2.94-9.6-4.51-14.88-4.31
				c-6.86,0.59-11.56,4.31-10.18,11.36c0.59,4.5,4.31,6.66,8.81,6.66c6.85,0,16.25-3.72,16.25-11.75V638.47z"/>
		</g>
		<g>
			<path class="st1" d="M392.13,578.54c7.05-0.19,13.9,1.76,19.19,5.68l-6.66,27.03c-5.29-3.72-10.97-4.9-16.26-4.7
				c-11.16,0.59-20.76,7.64-20.76,21.94v47.4h-32.71v-65.81c0-7.25-0.39-10.77-8.42-10.77v-18.21c13.12-3.13,38.58-5.29,40.15,12.93
				C370.39,583.63,381.36,578.54,392.13,578.54z"/>
		</g>
		<g>
			<path class="st1" d="M464.99,581.48h28.79v23.5h-28.79v32.9c0,17.23,18.22,16.06,30.36,11.75l2.74,24.88
				c-32.51,9.01-65.81,4.11-65.81-35.84v-33.69l-16.65-2.16v-21.35h16.65l3.72-29.18h28.99V581.48z"/>
		</g>
		<g>
			<path class="st1" d="M577.03,675.88v-54.06c0.19-10.77-6.08-16.26-13.13-16.26c-7.84,0-16.06,5.88-16.06,16.84v53.47h-33.49
				V532.9h33.49v60.71c4.7-9.4,15.47-14.29,26.05-14.29c27.42,0,36.82,18.21,36.82,42.5v54.06H577.03z"/>
		</g>
		<g>
			<path class="st1" d="M627.77,628.29c0-66.4,100.48-66.4,100.48,0C728.24,694.68,627.77,694.68,627.77,628.29z M695.14,628.29
				c0-27.42-34.08-27.42-34.08,0C661.06,655.71,695.14,655.71,695.14,628.29z M637.64,562.79c4.72,7.32,3.69,16.39-2.32,20.26
				c-6,3.87-14.69,1.07-19.41-6.25c-4.72-7.33-3.68-16.39,2.32-20.26C624.23,552.67,632.92,555.46,637.64,562.79z M674.29,547.44
				c2.21,9.87-2.55,19.33-10.63,21.15c-8.09,1.82-16.43-4.71-18.64-14.58c-2.21-9.87,2.55-19.34,10.63-21.15
				C663.73,531.05,672.08,537.58,674.29,547.44z M720.87,562.79c-4.72,7.32-3.69,16.39,2.32,20.26c6,3.87,14.69,1.07,19.41-6.25
				c4.72-7.33,3.68-16.39-2.32-20.26C734.28,552.67,725.6,555.46,720.87,562.79z M684.23,547.44c-2.21,9.87,2.55,19.33,10.63,21.15
				c8.08,1.82,16.43-4.71,18.64-14.58c2.21-9.87-2.55-19.34-10.63-21.15C694.79,531.05,686.44,537.58,684.23,547.44z"/>
		</g>
	</g>
</g>
<g>
	<path class="st1" d="M114.94,712.63c8.45,0,13.04,4.22,13.04,4.22l-1.39,1.76c0,0-4.49-3.8-11.66-3.8
		c-9.41,0-16.25,7.49-16.25,17.16c0,9.73,6.68,17.16,15.93,17.16c8.02,0,12.83-6.15,12.83-6.15v-7.22h-6.68v-2.14h8.98v17.06h-2.3
		v-3.26c0-0.8,0.05-1.6,0.05-1.6h-0.11c0,0-4.49,5.51-12.78,5.51c-10.43,0-18.34-8.5-18.34-19.35
		C96.28,721.19,104.36,712.63,114.94,712.63z"/>
	<path class="st1" d="M138.2,723.97h2.25v5.08c0,1.23-0.21,2.19-0.21,2.19h0.11c1.34-4.12,4.33-7.49,8.55-7.49
		c0.8,0,1.55,0.16,1.55,0.16v2.25c0,0-0.64-0.11-1.23-0.11c-4.17,0-6.79,3.53-7.97,7.49c-0.59,1.87-0.8,3.85-0.8,5.61v11.55h-2.25
		V723.97z"/>
	<path class="st1" d="M155.9,723.97h2.25v16.15c0,4.65,0.59,9.04,6.58,9.04c6.68,0,10.96-5.88,10.96-12.14v-13.04h2.25v26.73h-2.25
		v-4.71c0-1.23,0.21-2.19,0.21-2.19h-0.11c-0.91,2.51-4.6,7.54-11.07,7.54c-6.58,0-8.82-3.64-8.82-10.43V723.97z"/>
	<path class="st1" d="M187.35,723.97h2.25v3.21c0,1.23-0.16,2.14-0.16,2.14h0.11c0,0,2.19-5.99,9.62-5.99
		c7.16,0,11.55,5.72,11.55,14.01c0,8.5-4.97,14.01-11.87,14.01c-6.95,0-9.36-6.04-9.36-6.04h-0.11c0,0,0.21,0.96,0.21,2.35v13.74
		h-2.25V723.97z M198.84,749.15c5.24,0,9.52-4.33,9.52-11.82c0-7.22-3.85-11.81-9.3-11.81c-4.92,0-9.52,3.47-9.52,11.87
		C189.54,743.32,192.85,749.15,198.84,749.15z"/>
	<path class="st1" d="M230.18,723.32c7.65,0,13.85,6.04,13.85,13.85c0,7.97-6.2,14.17-13.85,14.17c-7.65,0-13.85-6.2-13.85-14.17
		C216.33,729.37,222.53,723.32,230.18,723.32z M230.18,749.15c6.36,0,11.5-5.19,11.5-11.98c0-6.63-5.13-11.65-11.5-11.65
		c-6.36,0-11.5,5.03-11.5,11.65C218.68,743.96,223.81,749.15,230.18,749.15z"/>
	<path class="st1" d="M276.48,723.32c6.74,0,9.25,6.04,9.25,6.04h0.11c0,0-0.21-0.96-0.21-2.19v-13.9h2.25v37.43h-2.25v-3.37
		c0-1.23,0.21-2.03,0.21-2.03h-0.11c0,0-2.3,6.04-9.68,6.04c-7.16,0-11.55-5.72-11.55-14.01
		C264.51,728.83,269.48,723.32,276.48,723.32z M276.16,749.15c4.92,0,9.52-3.47,9.52-11.87c0-5.93-3.05-11.76-9.3-11.76
		c-5.24,0-9.52,4.33-9.52,11.81C266.86,744.55,270.71,749.15,276.16,749.15z"/>
	<path class="st1" d="M308.41,723.32c7.27,0,10.91,5.72,10.91,12.19c0,0.59-0.11,1.44-0.11,1.44h-21.44
		c0,7.75,5.24,12.19,11.44,12.19c5.13,0,8.29-3.37,8.29-3.37l1.23,1.87c0,0-3.74,3.69-9.52,3.69c-7.54,0-13.79-5.45-13.79-13.95
		C295.41,728.35,301.56,723.32,308.41,723.32z M316.96,734.87c-0.27-6.52-4.17-9.46-8.61-9.46c-4.92,0-9.46,3.21-10.43,9.46H316.96z
		"/>
	<path class="st1" d="M342.74,713.27h12.3c6.52,0,11.39,4.12,11.39,10.91c0,6.79-4.87,11.01-11.39,11.01h-10v15.51h-2.3V713.27z
		 M354.93,733.05c5.45,0,9.09-3.26,9.09-8.88c0-5.61-3.64-8.77-9.09-8.77h-9.89v17.64H354.93z"/>
	<path class="st1" d="M373.32,723.97h2.25v5.08c0,1.23-0.21,2.19-0.21,2.19h0.11c1.34-4.12,4.33-7.49,8.55-7.49
		c0.8,0,1.55,0.16,1.55,0.16v2.25c0,0-0.64-0.11-1.23-0.11c-4.17,0-6.79,3.53-7.97,7.49c-0.59,1.87-0.8,3.85-0.8,5.61v11.55h-2.25
		V723.97z"/>
	<path class="st1" d="M402.62,723.32c7.65,0,13.85,6.04,13.85,13.85c0,7.97-6.2,14.17-13.85,14.17c-7.65,0-13.85-6.2-13.85-14.17
		C388.78,729.37,394.98,723.32,402.62,723.32z M402.62,749.15c6.36,0,11.5-5.19,11.5-11.98c0-6.63-5.13-11.65-11.5-11.65
		c-6.36,0-11.5,5.03-11.5,11.65C391.13,743.96,396.26,749.15,402.62,749.15z"/>
	<path class="st1" d="M424.76,726.16h-3.53v-2.03h3.53v-7.59h2.25v7.59h7v2.03h-7v14.7c0,7.06,4.22,7.97,6.36,7.97
		c0.75,0,1.23-0.11,1.23-0.11v2.08c0,0-0.53,0.11-1.34,0.11c-2.78,0-8.5-1.02-8.5-9.89V726.16z"/>
	<path class="st1" d="M451.82,723.32c7.27,0,10.91,5.72,10.91,12.19c0,0.59-0.11,1.44-0.11,1.44h-21.44
		c0,7.75,5.24,12.19,11.44,12.19c5.13,0,8.29-3.37,8.29-3.37l1.23,1.87c0,0-3.74,3.69-9.52,3.69c-7.54,0-13.79-5.45-13.79-13.95
		C438.83,728.35,444.97,723.32,451.82,723.32z M460.37,734.87c-0.27-6.52-4.17-9.46-8.61-9.46c-4.92,0-9.46,3.21-10.42,9.46H460.37z
		"/>
	<path class="st1" d="M482.25,723.32c6.36,0,9.57,3.8,9.57,3.8l-1.39,1.82c0,0-3.05-3.42-8.18-3.42c-6.26,0-11.44,4.65-11.44,11.87
		c0,7.11,5.19,11.76,11.44,11.76c5.88,0,8.93-3.85,8.93-3.85l1.18,1.87c0,0-3.42,4.06-9.84,4.17l-0.48,2.57
		c2.19,0.32,3.69,1.71,3.69,3.64c0,2.94-2.35,4.06-4.87,4.06c-1.44,0-2.35-0.21-2.35-0.21v-2.03c0,0,0.96,0.27,2.19,0.27
		c1.44,0,2.89-0.43,2.89-1.98c0-1.23-1.18-2.03-3.26-2.03c-0.32,0-0.64,0.05-0.64,0.05l0.96-4.44c-6.84-0.7-12.19-5.93-12.19-13.85
		C468.45,728.88,474.81,723.32,482.25,723.32z"/>
	<path class="st1" d="M514.17,734.39h1.76v-0.91c0-5.93-3.05-7.96-7.32-7.96c-4.65,0-7.65,2.57-7.65,2.57l-1.28-1.82
		c0,0,3.21-2.94,9.04-2.94c6.15,0,9.46,3.42,9.46,10.1v17.27h-2.25v-3.53c0-1.44,0.21-2.41,0.21-2.41h-0.11
		c0.05,0-2.41,6.58-9.36,6.58c-4.33,0-9.09-2.41-9.09-7.75C497.59,734.5,509.41,734.39,514.17,734.39z M506.79,749.25
		c5.83,0,9.14-6.04,9.14-11.33v-1.44h-1.71c-4.54,0-14.27,0-14.27,6.95C499.95,746.26,502.24,749.25,506.79,749.25z M505.45,713.27
		c3.58,0,4.22,3.96,6.74,3.96c1.87,0,2.14-2.57,2.14-3.8h2.14c0,3.8-1.5,5.77-4.44,5.77c-3.58,0-4.22-3.96-6.74-3.96
		c-1.87,0-2.14,2.57-2.14,3.8h-2.14C501.01,715.25,502.51,713.27,505.45,713.27z"/>
	<path class="st1" d="M539.09,723.32c7.64,0,13.85,6.04,13.85,13.85c0,7.97-6.2,14.17-13.85,14.17c-7.65,0-13.85-6.2-13.85-14.17
		C525.24,729.37,531.44,723.32,539.09,723.32z M539.09,749.15c6.36,0,11.49-5.19,11.49-11.98c0-6.63-5.13-11.65-11.49-11.65
		c-6.36,0-11.5,5.03-11.5,11.65C527.59,743.96,532.72,749.15,539.09,749.15z"/>
	<path class="st1" d="M594.59,737.76h-15.88l-4.81,12.94h-2.46l14.01-37.43h2.46l14.01,37.43h-2.46L594.59,737.76z M586.62,715.95
		c0,0-0.8,2.89-1.39,4.49l-5.72,15.18h14.27l-5.67-15.18c-0.59-1.6-1.39-4.49-1.39-4.49H586.62z"/>
	<path class="st1" d="M607.59,723.97h2.25v4.71c0,1.23-0.21,2.19-0.21,2.19h0.11c0.91-2.51,4.65-7.54,11.33-7.54
		c6.95,0,8.82,4.12,8.82,10.43v16.95h-2.25v-16.15c0-4.65-0.59-9.03-6.58-9.03c-5.03,0-9.46,3.53-10.8,8.5
		c-0.32,1.12-0.43,2.35-0.43,3.64v13.05h-2.25V723.97z"/>
	<path class="st1" d="M638.71,713.27h2.67v3.9h-2.67V713.27z M638.92,723.97h2.25v26.73h-2.25V723.97z"/>
	<path class="st1" d="M650.58,723.97h2.25v4.71c0,1.23-0.21,2.19-0.21,2.19h0.11c1.34-4.01,6.09-7.54,10.26-7.54
		c5.35,0,7.86,2.51,8.45,7.27h0.11c1.5-3.74,5.56-7.27,10.16-7.27c6.9,0,8.93,4.06,8.93,10.43v16.95h-2.25v-16.15
		c0-5.03-1.02-9.14-6.68-9.14c-4.44,0-8.23,3.96-9.41,8.13c-0.37,1.23-0.54,2.57-0.54,4.12v13.05h-2.25v-16.15
		c0-4.6-0.64-9.14-6.52-9.14c-4.76,0-8.5,4.17-9.73,8.61c-0.32,1.12-0.43,2.35-0.43,3.64v13.05h-2.25V723.97z"/>
	<path class="st1" d="M714.04,734.39h1.76v-0.91c0-5.93-3.05-7.96-7.32-7.96c-4.65,0-7.65,2.57-7.65,2.57l-1.28-1.82
		c0,0,3.21-2.94,9.04-2.94c6.15,0,9.46,3.42,9.46,10.1v17.27h-2.25v-3.53c0-1.44,0.21-2.41,0.21-2.41h-0.11
		c0.05,0-2.41,6.58-9.36,6.58c-4.33,0-9.09-2.41-9.09-7.75C697.47,734.5,709.29,734.39,714.04,734.39z M706.67,749.25
		c5.83,0,9.14-6.04,9.14-11.33v-1.44h-1.71c-4.54,0-14.27,0-14.27,6.95C699.82,746.26,702.12,749.25,706.67,749.25z"/>
	<path class="st1" d="M726.83,713.27h2.25v31.33c0,3.74,1.92,4.17,3.15,4.17c0.43,0,0.8-0.05,0.8-0.05v2.08c0,0-0.48,0.11-0.96,0.11
		c-1.55,0-5.24-0.59-5.24-5.61V713.27z"/>
</g>
</svg>
